<?xml version="1.0" encoding="UTF-8"?>
<svg id="Layer_2" xmlns="http://www.w3.org/2000/svg" viewBox="0 0 378.54 456.2">
  <defs>
    <style>
      .cls-1 {
        fill: #fff;
      }
    </style>
  </defs>
  <g id="Layer_1-2" data-name="Layer_1">
    <g>
      <path class="cls-1" d="M366.42,322.91c-3.68-3.11-7.81-6.08-11.54-9.25-36.51-30.31-42.79-90.44-11.68-126.97,7.56-9.33,19.17-16.91,25.7-26.38,2.98-4.54,4.11-9.33,2.04-14.84-5.12-12.33-18.34-22.07-29.25-29.48-38.9-25.18-85.7-10.11-128.32,1.11-6.66,1.32-13.41,1.44-20.08.28-23.99-4.29-46.16-18.08-71.06-18.67C59.67,95.6,8.89,152.67,1.58,212.56c-11.22,75.13,37.39,261.28,141.54,242.29,4.91-.98,9.92-2.58,14.89-4.54,3.4-1.33,6.79-2.79,10.15-4.14,43.7-21.05,90.99,21.44,133.19,6.43,18.04-6.6,29.31-23.11,40.94-37.54,18.57-24.54,55.23-67.51,24.27-92.02l-.15-.12Z"/>
      <path class="cls-1" d="M202.31,108.17c43.67-3.12,77.77-42.83,85.13-85.01,1.58-7.94.82-18.08-7.51-21.52-42.5-16.76-129.31,100.73-77.79,106.53h.17Z"/>
    </g>
  </g>
</svg>