<?xml version="1.0" encoding="UTF-8"?>
<svg id="Layer_2" xmlns="http://www.w3.org/2000/svg" viewBox="0 0 56.47 23.28">
  <defs>
    <style>
      .cls-1 {
        fill: #ffbb28;
      }
    </style>
  </defs>
  <g id="Layer_1-2" data-name="Layer_1">
    <path class="cls-1" d="M43.87,9.77c-1.86-.97-3.58-1.81-5.25-2.73-2.04-1.13-4.04-2.33-6.05-3.51-.84-.49-1-1.05-.36-1.78.56-.65,1.27-1.2,2-1.64.31-.18.94-.12,1.27.08,6.49,3.96,13.23,7.4,20.29,10.21.74.3.87.65.47,1.35-.53.94-1.32,1.62-2.35,1.96-.28.09-.68.15-.92.02-.63-.32-1.11-.12-1.61.23-2.06,1.42-4.2,2.73-6.15,4.29-1.12.89-1.97,2.13-2.87,3.27-.61.76-1.23,1.47-2.2,1.71-.36.09-.98.08-1.12-.12-.19-.28-.18-.91.02-1.19.92-1.31,1.8-2.69,2.94-3.78,1.66-1.59,3.54-2.96,5.32-4.43.11-.09.21-.17.44-.37-.83-.02-1.53-.05-2.22-.05-14.79-.01-29.58-.02-44.38-.04-.38,0-1.02-.1-1.08-.3-.13-.38-.04-.93.17-1.29.67-1.14,1.69-1.76,3.06-1.77,9.05-.07,18.1-.17,27.15-.21,4.21-.02,8.42.09,12.63.14.2,0,.41-.02.8-.03Z"/>
  </g>
</svg>