<?xml version="1.0" encoding="UTF-8"?>
<svg id="Layer_2" xmlns="http://www.w3.org/2000/svg" viewBox="0 0 512 437.5">
  <defs>
    <style>
      .cls-1 {
        fill: #232916;
      }

      .cls-2 {
        fill: #ebe0af;
      }
    </style>
  </defs>
  <g id="Layer_1-2" data-name="Layer_1">
    <path class="cls-1" d="M105.88,426.85c31.83.11,63.55-2.01,95.26-4.44,10.11-.78,20.26-1.05,30.25-2.94,5.54-1.05,10.99-2.58,15.73-5.67,6.33-4.13,12.12-3.45,18.11.72,13.99,9.72,29.37,16.39,46.03,19.88,34.6,7.23,67.17,1.89,97.34-16.7,4.32-2.66,7.69-2.75,12.1-.32,18.02,9.94,36.53,11.51,55.11,1.56,12.6-6.75,20.92-17.43,25.51-30.8,5.84-17,8.74-34.61,9.97-52.55,1.9-27.55,0-54.86-5.67-81.81-5.19-24.65-16.92-45.65-37.61-60.88-2.29-1.69-3.15-2.88-.4-4.99,20.47-15.68,29.27-37.23,30.97-62.27,1.98-29.3-6.54-54.83-27.84-75.44-13.7-13.25-30.6-20.42-49.08-24.18-33.97-6.9-67.19-5.08-99.29,8.8-29.48,12.75-53.03,33.08-73.06,57.83-28.86,35.67-45.37,76.7-52.73,121.7-1.71,10.47-2.98,21.01-3.64,31.59-.26,4.11-2.3,6.36-5.91,7.69-7.26,2.67-15.07,3.35-22.29,6.28-2.95,1.2-2.52-1.16-2.24-3.14,1.65-11.85,3.85-23.61,5.21-35.52,1.2-10.41,1.86-20.84,2.22-31.27,1.15-33.04.35-66.1.18-99.15-.07-13.63-.57-27.21-4.41-40.48-7.85-27.16-30.28-46.35-58.5-49.61-25.77-2.98-49.16,2.75-68.89,20.16-13.88,12.25-21.25,28.51-26.31,45.96-1.91,6.59-2.7,13.34-2.86,20.2-.67,28.84,2.21,57.53,3.3,86.3.84,22.27.81,44.58-.19,66.86-.49,11.05-.24,22.11-1.02,33.18-1.39,19.69-3.83,39.19-7.88,58.5-3.14,14.93-4.55,29.97-2.13,45.16,4,25.05,21.05,42.41,46.64,46.88,19.18,3.35,38.63,2.75,58.01,2.9ZM482.73,314.47c.21,14.91-.91,31.37-4.29,47.62-1.91,9.19-3.65,18.53-10.14,25.89-6.42,7.29-14.77,10.11-24.17,8.51-9.07-1.55-14.44-7.83-17.32-16.25-1.07-3.11-1.43-6.47-2.19-9.69-.59-2.47-.82-5.22-4.21-5.71-3.25-.47-4.08,1.98-5.15,4.13-6.15,12.3-15.13,21.97-27.32,28.31-19.95,10.38-41.26,13.61-63.46,10.87-14.63-1.81-28.07-7.17-40.61-14.85-5.71-3.5-6.59-5.87-4.45-12.02.4-1.14.9-2.24,1.32-3.37,6.84-18.34,10.17-37.22,6.62-56.65-5.95-32.52-23.67-60.64-59.99-67.71-4.34-.84-5.99-3.14-5.66-7.64.9-12.11,2.47-24.11,4.79-36.02,9.13-46.84,29.83-87.36,64.82-120.31,33.98-31.99,73.75-44.53,119.79-36.84,19.13,3.19,36.25,10.23,47.28,27.32,8.66,13.43,11.43,28.53,10.99,44.31-.75,27.31-15.59,44.91-42.34,49.95-19.24,3.62-36.23.39-48.3-16.86-1.11-1.59-2.6-2.97-4.1-4.22-9.13-7.61-20.08-7.17-28.66,1.07-2.54,2.44-4.62,5.24-6.34,8.28-14.86,26.25-25.45,53.95-27.12,84.39-.87,15.75-1.13,31.6,5.84,46.4,6.73,14.29,16.53,19.62,32.19,17.8,14.9-1.74,27.06-11.31,30.63-24.11,2.14-7.7-1.14-12.2-9.04-12.28-4.69-.05-9.4.24-14.08.02-6.03-.29-11.12-2.65-14.42-7.99-3.35-5.43-4.87-11.33-4.59-17.74.73-16.55,12.83-31.69,30.79-37.86,16.62-5.7,33.7-6.47,51.12-4.84,27.12,2.53,44.7,16.39,53.14,42.33,6.8,20.89,8.73,42.34,8.62,65.78ZM120.36,398.58c-7.15,0-12.61,0-18.06,0-14.99.03-30,.44-44.9-1.83-15.59-2.38-24.1-9.66-26.95-23.56-2.07-10.07-1.55-20.21.07-30.3,3.24-20.16,7.8-40.11,9.07-60.58,2.68-43.2,2.84-86.36-.7-129.53-1.72-21.01-2.68-42.07-1.5-63.16.61-11.03,3.39-21.51,8.49-31.34,12.35-23.77,37.68-35.01,63.5-28.17,18.06,4.78,29.28,20.07,30.81,40.99,1.84,25.1,3.46,50.21,4.35,75.36.72,20.32-.04,40.54-3.79,60.66-4.71,25.28-8.81,50.68-12.77,76.1-2.1,13.52,9.68,22.53,22.18,17.15,7.2-3.1,14.29-6.63,20.99-10.69,17.62-10.68,36.66-9.18,55.71-6.81,8.12,1.01,14.52,6.08,19.5,12.41,14.5,18.43,16.75,39.15,11.6,61.49-3.62,15.72-14.55,24.91-27.35,32.42-4.75,2.79-10.69,3.32-16.25,3.82-31.84,2.91-63.77,4.24-94,5.55Z"/>
    <path class="cls-2" d="M482.73,314.47c.12-23.44-1.82-44.89-8.62-65.78-8.44-25.94-26.02-39.8-53.14-42.33-17.43-1.63-34.51-.86-51.12,4.84-17.96,6.17-30.06,21.31-30.79,37.86-.28,6.41,1.24,12.31,4.59,17.74,3.3,5.34,8.39,7.7,14.42,7.99,4.68.23,9.39-.06,14.08-.02,7.9.08,11.18,4.58,9.04,12.28-3.57,12.8-15.73,22.38-30.63,24.11-15.67,1.82-25.46-3.5-32.19-17.8-6.97-14.8-6.71-30.66-5.84-46.4,1.67-30.44,12.26-58.13,27.12-84.39,1.72-3.04,3.8-5.84,6.34-8.28,8.58-8.23,19.52-8.67,28.66-1.07,1.5,1.25,2.99,2.63,4.1,4.22,12.07,17.25,29.06,20.48,48.3,16.86,26.75-5.04,41.59-22.64,42.34-49.95.43-15.77-2.33-30.88-10.99-44.31-11.03-17.09-28.15-24.13-47.28-27.32-46.04-7.69-85.81,4.85-119.79,36.84-35,32.95-55.7,73.47-64.82,120.31-2.32,11.91-3.89,23.91-4.79,36.02-.33,4.5,1.32,6.79,5.66,7.64,36.32,7.07,54.04,35.19,59.99,67.71,3.55,19.42.22,38.31-6.62,56.65-.42,1.13-.93,2.23-1.32,3.37-2.14,6.15-1.26,8.52,4.45,12.02,12.54,7.68,25.99,13.05,40.61,14.85,22.19,2.74,43.51-.49,63.46-10.87,12.19-6.34,21.17-16.01,27.32-28.31,1.07-2.14,1.9-4.6,5.15-4.13,3.39.49,3.62,3.24,4.21,5.71.77,3.22,1.13,6.58,2.19,9.69,2.88,8.41,8.25,14.7,17.32,16.25,9.41,1.61,17.75-1.21,24.17-8.51,6.49-7.36,8.23-16.7,10.14-25.89,3.38-16.25,4.5-32.71,4.29-47.62Z"/>
    <path class="cls-2" d="M120.36,398.58c30.24-1.31,62.17-2.64,94-5.55,5.56-.51,11.49-1.03,16.25-3.82,12.79-7.52,23.73-16.7,27.35-32.42,5.15-22.35,2.9-43.06-11.6-61.49-4.98-6.33-11.38-11.4-19.5-12.41-19.05-2.38-38.08-3.88-55.71,6.81-6.7,4.06-13.79,7.59-20.99,10.69-12.5,5.38-24.29-3.63-22.18-17.15,3.95-25.41,8.06-50.82,12.77-76.1,3.75-20.12,4.51-40.34,3.79-60.66-.89-25.15-2.51-50.26-4.35-75.36-1.53-20.92-12.75-36.2-30.81-40.99-25.82-6.84-51.14,4.4-63.5,28.17-5.11,9.83-7.88,20.31-8.49,31.34-1.18,21.09-.22,42.14,1.5,63.16,3.54,43.16,3.37,86.33.7,129.53-1.27,20.48-5.83,40.42-9.07,60.58-1.62,10.09-2.14,20.23-.07,30.3,2.85,13.9,11.37,21.18,26.95,23.56,14.9,2.27,29.91,1.86,44.9,1.83,5.46-.01,10.91,0,18.06,0Z"/>
  </g>
</svg>