<?xml version="1.0" encoding="UTF-8"?>
<svg id="Layer_2" xmlns="http://www.w3.org/2000/svg" viewBox="0 0 1036.67 1230.25">
  <defs>
    <style>
      .cls-1 {
        fill: #232916;
      }

      .cls-2 {
        fill: #4a4e3f;
      }

      .cls-3 {
        fill: #363c25;
      }

      .cls-4 {
        fill: #efe9d0;
      }

      .cls-5 {
        fill: none;
      }

      .cls-6 {
        fill: #ebe0af;
      }
    </style>
  </defs>
  <g id="Layer_1-2" data-name="Layer_1">
    <rect class="cls-5" x="0" y="0" width="1036.67" height="1230.24"/>
    <path class="cls-1" d="M626.93,1230.24c6.78-2.94,14.07-2.83,21.22-3.27,16.57-1,33.04-2.75,49.25-6.31,39.98-8.78,79.26-19.87,116.3-37.5,20.16-9.6,38.42-22.12,53.61-38.77,13.22-14.49,18.91-30.56,12.29-49.79-1.55-4.53.59-9.13.04-13.72-2.41-20.39-1.64-40.95-3.09-61.36-3-42.56-1.74-85.14-1.21-127.71.19-15.49,7.35-29.52,12.9-43.61,11.24-28.57,25.67-55.71,39.85-82.94,2.4-4.6,5.94-7.51,11.05-8.54,33.02-6.61,54.19-27.5,67.41-56.84,16.14-35.89,19.37-73.81,15.23-112.55-.6-5.61-2.16-11.17-5.05-15.97-3.43-5.7-2.71-10.64-.15-16.41,9.13-20.43,16.08-41.6,18.01-63.98,1.58-18.2,2.84-36.55,1.49-54.8-1.35-18.23-1.08-36.49-2.6-54.74-2.37-28.46-9.09-55.7-18.23-82.57-6.92-20.36-16.06-39.68-27.42-58.41,4.84-1.34,8.62.87,12.44,2.88,4.12,2.18,8.26,4.2,13.13,4.14,3.22-.05,4.87-1.52,4.92-4.75.07-4.7-.59-9.27-3.43-13.17-9.71-13.45-21.92-24.09-36.85-31.56-1.25-.63-2.63-1.35-3.96-1.41-10.05-.45-12.99-7.09-15.26-15.51-4.63-17.24-11.29-33.8-18.36-50.21-4.95-11.47-13.37-19.98-22.4-28.06-3.54-3.17-8.42-.58-9.25,5.04-.63,4.36-.73,8.87,1.05,13.07,1.29,3.05,1.77,6.18,1.46,9.41-.16,1.62,1.29,3.93-1.07,4.74-1.8.62-2.68-1.41-3.76-2.53-29.41-30.87-63.18-55.07-103.45-70.67-29.27-11.34-59.71-16.46-90.25-22.05-23.64-4.33-47.51-4.62-71.35-5.09-23.46-.46-46.9,1.39-70.35,2.27-22.42.84-44.12,5.5-65.82,9.95-33.21,6.8-63.43,22.23-94.43,35.19-10.89,4.56-20.12,12.52-29.78,19.41-7.05,5.02-14.57,9.31-21.17,15.03-11.95,10.36-23.3,21.21-31.14,35.08-7.13,12.63-18.07,22.73-24.71,35.55-13.6,26.31-24.99,53.39-25.94,83.71-.98,31.73-2.15,63.44-3.8,95.15-.77,14.62-2.81,29.17-4.38,43.74-4.5,41.73-9.55,83.43-2.92,125.4,3.5,22.1.72,43.43-6.7,64.57-12.9,36.77-17.61,74.98-17.59,113.75.02,32.69,8.91,63.4,22.66,92.89,4.16,8.92,7.95,18,11.53,27.16,3.77,9.64,2.56,12.31-7.23,15.92-34.58,12.8-68.52,27.28-103.38,39.37-11.86,4.11-22.91,9.89-34.05,15.54-2.31,1.17-3.29,2.76-3.48,5.11-.9,11.46.62,22.43,6.72,32.46,6.11,10.06,15.12,13.85,26.84,11.36,13.78-2.93,26.01-9.88,38.64-15.51,25.42-11.34,51.89-19.98,77.46-30.85,3.71-1.58,7.4-3.18,11.12-4.77,7.09-2.99,8.71-2.13,10.45,5.24,7.15,30.34,17.13,59.7,31.51,87.48,12.69,24.5,29.73,45.33,52.57,61.32,11.7,8.19,24.26,14.41,38.41,17.03,3.61.68,5.03,2.22,5.42,5.87,3.33,31.03,5.12,62.07,1.51,93.21-1,8.64,2.07,14.73,10.24,19.14,39.88,21.59,82.75,32.41,127.69,36.43,7.32.65,14.8.03,21.95,2.32h37.67-.04ZM417.8,558.23c1.85.68,2.27,1.98,1.96,3.82-2.07,12.03-3.96,24.03-7.52,35.83-5.82,19.25-14.89,37.26-21.08,56.34-5.68,17.52-14.52,33.9-17.61,52.39-5.34,31.94,17.1,56.22,49.46,52.85,13.26-1.38,26.52-2.51,39.58-5.49,10.57-2.41,21.37-2.45,31.87.36,7.98,2.13,16.01,2.79,24.04,1.88,13.67-1.54,29.03-8.73,31.99-27.07,1.65-10.25,1.52-20.36-.23-30.54-.57-3.34-1.36-6.47-5.77-6.31-4.53.17-5.6,3.48-6.08,6.97-.71,5.2-.32,10.44.21,15.64,2.16,21.47-14.67,35.64-35.53,29.13-17.17-5.37-34.12-4.96-51.48-1.7-11.1,2.07-22.39,3.4-33.77,2.96-14.4-.57-22.89-6.55-26.33-18.83-1.91-6.84-2.28-13.81-.96-20.88,3.21-17.09,10.31-32.88,16.3-49.03,10.17-27.41,22.3-54.13,28.81-82.83,6.62-29.28,12.42-58.42,2.93-88.28-2.4-7.58-5.77-13.1-13.49-16.42-18.26-7.85-37.34-12.92-56.48-17.85-11.15-2.87-22.38-5.14-34.03-3.96-18.67,1.91-35.69,8.17-51.14,18.73-1.24.85-2.43,2.65-4.16,1.68-1.64-.93-1.02-2.92-1.01-4.44.05-6.43-.43-12.94.51-19.25,2.78-18.83,5.99-37.6,9.31-56.35,5.27-29.85,11.81-59.41,21.81-88.1,2.01-5.77,3.84-11.7,7.79-16.94,1.22,2,.02,3.39-.1,4.86-.51,6.14-2.21,12.46,2.09,18,2.49,3.2,4.47,6.66,6.45,10.18,4.76,8.47,12.57,10.36,21.04,5.38,4.08-2.4,6.93-6.14,10.42-9.18,6.42-5.57,13.01-10.87,21.74-15.12-2.31,6.44-5.06,11.41-5.87,17.01-1.01,6.86,3.57,15.12,10.26,18.29,5.45,2.57,9.98,1.16,15.67-5.49,10.79-12.64,26.62-17.43,41.07-27.47-1.94,7.76-4.7,13.32-5.88,19.37-2.37,12.16,1.99,24.73,10.53,29.22,8.7,4.57,19.58,2.05,28.9-7.66,10.37-10.8,21.65-20.51,33.37-29.77,1.15-.92,2.11-2.23,4.34-2-3.26,8.73-6.49,17.11-9.51,25.55-3.17,8.88.91,14.19,10.39,13.79,2.46-.11,4.77-.68,7.06-1.56,10.72-4.13,19.86-10.64,28.28-18.25,13.91-12.57,27.41-25.6,42.24-37.14,11.2-8.71,22.56-17.17,35.71-25.61-4.01,8.76-7.06,16.36-11.55,23.24-5.53,8.48-6.92,17.89-6.59,27.66.18,5.4,3.59,7.97,8.96,6.91,5.86-1.16,10.99-3.96,15.57-7.7,9.69-7.91,18.43-16.82,27.2-25.66,13.6-13.7,26.58-28.12,43.82-37.64,3.4-1.87,6.62-4.46,11.19-4.16-5.11,9.55-6.11,19.81-8.03,29.83-1.04,5.37.06,10.42,2.03,15.3,3.69,9.11,14.1,15.89,22.4,14.36,22.14-4.09,43.65-9.99,63.34-21.41,3.4-1.97,6.27-8.07,11.02-4.57,3.38,2.49,4.23,7.59,5.24,11.92.05.19.02.4.07.6,4.83,24.65,6.96,49.66,9.28,74.58,2.29,24.56-1.42,48.99-7.13,72.71-7.38,30.64-5.45,61.27-3.99,92.1.77,16.12,6.6,31.41,7.17,47.52.5,14.01,2.65,27.9.85,42.07-1.44,11.28-2.88,22.75-.53,34.2.95,4.66,3.12,7.6,8.2,8.14,7.22.76,14.43,1.69,21.62,2.74,14.96,2.18,15.93-.29,16.97-11.44.15-1.58.6-3.15.86-4.72,3.33-19.75,6.86-39.42,14.47-58.14,8.9-21.82,22.4-39.1,45.01-48.63,32.59-13.73,74.25.77,82.79,41.42,7.64,36.43,2.02,71.32-12.06,105.19-5.58,13.43-12.87,25.9-24.86,35.02-24.37,18.53-52.73,23.02-82.28,22.48-6.02-.11-8.45,1.48-9.52,6.89-1.77,9.02-3.85,18-5.72,27.01-6.55,31.44-11.77,62.92-11.6,95.29.13,24.51,1.91,49.05.8,73.5-1.12,24.77.86,49.4.8,74.11-.03,9.22.91,18.44,1.56,27.66,1.32,18.82,2.9,37.61,4.07,56.44.44,6.97-1.6,13.56-5.95,19.15-9.58,12.34-20.53,23.01-34.47,30.76-25.84,14.37-53.24,24.63-81.42,33.41-24.89,7.74-50.21,14.07-75.88,17.35-31.86,4.06-64.07,4.68-96.29,1.97-34.08-2.87-67.65-7.64-99.64-20.36-2.21-.88-4.68-1.17-7.05-1.54-1.39-.22-2.87-.01-3.89-1.26-3.51-4.31-8.47-5.91-13.59-7.3-1.88-.5-4.25-.98-3.7-3.8.95-5.02.13-10,.02-15.01-.15-6.37.82-7.11,7.02-5.88,1.59.31,3.26,1.09,4.73.27,7.4-4.14,15.87-4.33,23.8-6.49,61.34-16.69,118.91-41.55,171.81-76.97,34.63-23.19,68.06-47.58,97.41-77.38,12.49-12.69,23.1-26.87,35.21-39.8,7.88-8.42,14.29-17.96,21.89-26.57,2.53-2.87,2.67-5.8,0-8.59-2.84-2.97-6.04-2.84-9.23-.5-4.27,3.14-7.86,6.89-10.79,11.3-2.78,4.2-5.92,8.1-9.71,11.51-7.64,6.88-15.11,13.97-22.67,20.93-18.12,16.67-36.6,33.09-57.66,45.94-65.61,40.04-136.67,59.46-214.02,53.86-11.29-.82-22.72.8-33.9-1.23-36.67-6.61-68.12-20.83-90.92-52.63-14.8-20.66-21.4-44.12-31.38-66.46-.66-1.47-1.17-4.04,2.05-3.51,6.71,1.12,7.48-2.73,7.17-7.86-.18-3.01,0-6.04.08-9.04.12-3.84-.11-7.82-4.96-8.16-5.12-.36-5.42,4.04-5.71,7.59-.33,3.94-.07,7.95-.07,11.93-5.43-11.99-9.53-24.09-13.28-36.29-.86-2.79-1.03-5.83,2.93-7.45,15.45-6.31,30.28-13.91,45.02-21.68,5.01-2.65,10.15-4.93,15.33-7.21,4.47-1.98,7.52-1,10.7,2.44,5.74,6.21,11.57,12.29,19.51,16,33.78,15.75,68.97,17.06,104.23,7.67,31.75-8.46,60.53-24.44,89.45-39.68,2.1-1.11,3.92-2.82,5.7-4.45,4.01-3.68,7.22-7.85,5.63-13.7-1.53-5.64-6.34-7.29-11.39-8.66-10-2.72-20.37-3.22-30.48-5.12-46.34-8.72-92.89-8.65-139.66-4.66-14.66,1.26-29.45,3.05-44.18.71-14.88-2.35-28.27,1.03-41.29,8.23-14.18,7.85-29.69,12.57-45.45,16.37-6.03,1.46-8.05,0-8.78-6.32-.46-4.05-1.6-7.82-3.37-11.49-7.6-15.72-14.76-31.63-21.11-47.89-9.44-24.19-12.17-49.17-10.25-75.04,2.38-32.02,8.33-63.17,18.75-93.56,5.6-16.35,10.76-32.84,9.14-50.56-1.2-13.18-1.93-26.42-3.18-39.6-.52-5.56,1.09-9.06,6.54-11.28,13.66-5.54,27.42-10.77,41.51-15.15,8.73-2.71,17.65-2.8,26.45-1.59,24.33,3.34,46.38,13.74,68.86,22.78,2.48,1,4.86,2.74,4.25,5.86-1.31,6.73-2.01,13.49-1.88,20.33.02,1.49-.33,2.96-1.8,3.52-1.93.75-2.95-.78-3.89-2.1-2.58-3.6-5.35-6.98-8.86-9.83-18.65-15.15-39.98-21.04-63.48-16.55-22.29,4.26-40.8,15.06-52.34,35.42-4.86,8.58-3.01,12.99,6.33,15.59,8.25-5.3,16.52-10.59,25.08-16.07,1.8,11.24,4.21,21.51,10.32,30.51,9.95,2.43,19.82,6.02,30.19,1.89,10.11-6.96,13.42-16.94,12.85-28.61-.13-2.8-.35-5.59-.52-8.38-.22-3.54,1.37-4.77,4.8-3.75,13.56,4,24.54,11.87,33.84,22.27l-.02-.08ZM576.88,837.01c-9.81,4.8-18.74,11.19-29.63,13.08-19.67,3.4-38.26,11.01-58.28,13.44-12.74,1.54-24.99,5.72-38.2,3.02-16.58-3.39-33.4-5.68-48.23-14.68-1.88-1.14-4.19-1.79-4.83-4.22-1.15-4.39,7.57-16.32,12.19-16.57,8.87-.48,17.78-.6,26.65-1.23,33.19-2.34,66.33-8.31,99.58-.1,13.31,3.29,27.35,2.65,40.74,7.27h.01ZM318.25,868.43c.49,2.69-1.15,3.97-3.18,5.23-4.96,3.09-10.2,5.62-15.57,7.93-40.39,17.36-82.87,29.63-122.09,49.79-3.97,2.05-5.03,0-5.8-3.04-1.36-5.43-2.75-10.83-5.66-15.73-2.94-4.95-2.35-7.3,3.32-8.76,8.06-2.07,15.3-6.01,22.97-8.94,34.13-13.04,68.44-25.66,101.69-40.9,14.73-6.74,20.19-3.96,23.76,12.09.17.79.36,1.56.55,2.34h.02ZM367.89,828.18c6.28-.22,7.26.59,8.5,6.62.32,1.54.78,3.11,1.53,4.48,1.59,2.91.15,4.59-2.2,5.85-10.43,5.61-20.85,11.26-31.37,16.67-9.86,5.07-10.83,4.62-14.82-5.27-.45-1.11-.9-2.22-1.34-3.34-2.55-6.54-1.85-8.45,4.46-11.27,8.44-3.78,16.96-7.38,25.37-11.2,3.17-1.43,6.38-2.41,9.87-2.54ZM548.54,279.38c1.62,2.48-6.64,4.2.57,5.84-.15.52-.15,1.34-.47,1.5-2.35,1.16-4.77,2.24-7.45,2.22-1.02,0-1.07-.99-1.03-1.81.13-2.53.93-4.81,3.3-6.02,1.64-.84,3.18-2.55,5.07-1.71h.01ZM834.01,253.12c2.85,2.2,3.66,4.08,2.06,6.56-.51.8-1.25,1.06-1.93.46-2.34-2.05-.61-4.21-.12-7.02ZM550.53,114c1.01.25,2.18.65,2.03,1.75-.29,2.39-2.62,2.71-4.34,3.45-1.17.49-2.08-.65-1.88-1.56.44-2.12,2.12-3.2,4.18-3.66h.01Z"/>
    <path class="cls-3" d="M197.65,272.53c-14.82.42-28.87,2.99-39.84,14.18-.85.87-1.82,1.8-3.16,1.4-1.8-.53-1.64-2.17-1.49-3.52.86-8.34.53-17.08,4.18-24.71,7.45-15.56,15.68-30.7,28.28-43.09,13.91-13.66,29.1-25.78,44.39-37.78,4.17-3.27,6.88.63,8.2,3.79,1.9,4.51,5.11,8.16,7.15,12.51,1.35,2.87,3.56,4.42,6.82,3.7,3.15-.69,3.83-3.37,4.12-6,2.42-21.41,5.9-42.68,9.23-63.98.84-5.34-2.1-10.37-7.34-10.5-19.99-.48-39.43-5.86-59.39-6.3-8.61-.18-9.94,2.12-5.7,9.4,1.31,2.24,2.81,4.42,4.48,6.41,5.94,7.06,5.81,8.71-2.13,13.17-18.05,10.15-33.81,23.44-48.63,37.47-19.17,18.14-32.5,40.44-42.52,65.04-7.52,18.47-12.77,37.1-13.05,56.86-.24,17.66,3.22,34.7,13.52,49.64,3.74,5.44,4.07,11.22,2.84,17.25-.81,4.02-.95,7.88.02,11.88.51,2.11.91,4.51.4,6.54-2.63,10.54.8,20.58,1.9,30.86.96,9.12,3.73,18.31,3.67,27.03-.12,17.86,4.69,34.33,9.92,50.78,3.83,12.03,6.45,24.37,10.38,36.31,2.35,7.11,6.78,13.52,7.56,21.3,1.45,14.69,5.91,28.85,5.85,43.89-.06,17.02-5.94,31.96-14.21,45.88-6.02,10.15-11.69,20.6-18.52,30.3-1.96,2.79-3.61,5.97-6.13,8.16-16.43,14.23-24.86,33.31-32.92,52.66-1.97,4.71-2.78,9.47-2.71,14.6.17,10.81-1.93,21.56-1.2,32.42.17,2.61.16,5.16,1.05,7.7,3.8,10.97,3.8,22.89,9.49,33.53,3.62,6.79,7.65,13.09,12.36,19.11,9.77,12.48,20.97,23.25,35.38,30.4,4.51,2.23,9.21,2.74,14.14,2.51,2.36-.11,3.61-1.34,4.62-3.28,1.15-2.21.33-3.78-1.17-5.39-11.28-12.22-18.57-27.12-27.75-40.75-2.42-3.59-3.39-7.57-3.23-11.98.32-8.82-.71-17.56-2.22-26.25-1.88-10.73,2.21-20.09,6.62-29.4.95-1.99,1.96-4.03,2.41-6.16,3.42-15.97,13.35-28.05,24.21-39.42,13.94-14.6,26.84-30.4,36.88-47.44,11.96-20.3,21.91-41.91,23.93-66.73,1.57-19.33-2.75-36.92-7.8-54.76-6.33-22.36-15.58-43.69-24.21-65.26-11.57-28.93-17.88-58.99-16.06-90.39.21-3.63,1.74-5.46,5.2-4.84,25.39,4.61,43.87-10.58,63.28-22.26,9.93-5.98,14.87-16.79,16.29-27.87,2.33-18.37-.84-35.58-15.87-48.81-9.13-8.03-19.84-10.17-31.53-9.78l.02-.02ZM207.8,312.52c.43,3.73-2.26,6.02-4.96,7.5-8,4.37-16.93,6.15-25.78,8-2.55.53-4.18-1.05-2.61-3.55,5.4-8.58,10.11-17.85,21.09-21.04,5.47-1.58,12.23,3.17,12.25,9.08h.01Z"/>
    <path class="cls-3" d="M83.61,0C44.94-.37,19.17,30.53,24.76,64.15c2.88,17.34,11.17,30.72,27.19,38.98,4.84,2.5,9.46,5.42,14.09,8.29,3.67,2.28,6.56,5.28,8.12,9.45,2.36,6.3,1.39,9.6-4.39,13.26-8.01,5.08-16.09,10.04-24.13,15.06-16.59,10.36-16.76,29.45-10.96,42.69,2.16,4.93,5.38,9.41,8.06,14.14,6.08,10.79,4.8,19.11-4.16,27.61-2.33,2.22-4.7,4.42-6.99,6.7-2.19,2.2-1.84,4.83-.68,7.27,1.03,2.17,3.05,2.88,5.52,2.96,18.99.6,32-7.93,39.61-25.07,2.1-4.73,1.59-9.9,2.86-14.63,3.11-11.61-2.55-20.54-7.82-29.68-5.31-9.22-3.77-13.9,6.72-15.83,26.39-4.84,38.64-28.34,40.73-46.7,1.56-13.69-6.95-27.55-19.89-32.75-8.24-3.31-16.74-6.01-24.33-10.72-1.03-.64-2.09-1.23-3.09-1.92-10.02-6.93-14.84-16.78-12.48-25.43,2.44-8.96,14.06-17.34,25.37-17.52,14.78-.24,28.9,3.12,42.16,9.55,5.21,2.52,9.7,3.44,14.36-1.03,5.55-5.33,10.87-10.53,7.6-19.24-.84-2.24-2.37-3.8-4.53-4.57C122.54,7.48,101.22.63,83.61,0Z"/>
    <path class="cls-3" d="M0,346.23c1.91,2.3,1.7,5.26,2.36,7.91,2.21,8.98,6.62,16.17,14.85,21.05,7.2,4.27,12.41,10.86,18.05,16.88.81.87,1.94,2.04,1.88,3-.52,9.22,5.08,17.81,2.49,27.31-1.32,4.84.8,9.61,3.25,13.75,2.24,3.78,6.17,3.82,9.59,1.66,7.57-4.81,14.05-10.81,18.38-18.81,2.09-3.87,2.78-8.14,1.82-12.28-3.84-16.53-9.69-31.99-25.11-41.68-6.56-4.13-10.89-10.07-14.32-16.79-3.39-6.62-1.8-13.04,1.74-18.87,3.08-5.05,8.17-4.56,10.88.75,1.54,3.04,2.56,6.37,4.95,8.92,3.54,3.78,7.67,5.77,13.03,4.04,5.32-1.71,7.65-5.55,8.14-10.8,1.37-14.45-10.45-34.09-24.18-38.58-13.94-4.56-35.48,1.75-42.76,23.31-1.91,5.66-3.37,11.47-5.03,17.22v12.06-.05Z"/>
    <path class="cls-3" d="M43.12,470.62c.15,9.33,7.62,18.37,15.04,18.18,10.59-.26,21.04-10.53,20.82-20.44-.19-8.72-8.82-17.79-16.66-17.53-9.82.33-19.34,10.15-19.18,19.79h-.01Z"/>
    <path class="cls-2" d="M366.84,576.71c-10.37,4.14-20.24.54-30.19-1.89-9.36-1.22-18.4-3.32-25.95-9.43-2.82-2.28-6-3.88-9.44-5.01-9.34-2.59-11.19-7.01-6.33-15.59,11.55-20.36,30.06-31.16,52.34-35.42,23.51-4.49,44.84,1.4,63.48,16.55,3.51,2.85,6.27,6.21,8.86,9.83.94,1.31,1.96,2.84,3.89,2.1,1.47-.57,1.82-2.04,1.8-3.52-.13-6.84.57-13.6,1.88-20.33.61-3.11-1.77-4.86-4.25-5.86-22.47-9.04-44.52-19.43-68.86-22.78-8.8-1.21-17.72-1.12-26.45,1.59-14.1,4.38-27.85,9.61-41.51,15.15-5.46,2.21-7.07,5.72-6.54,11.28,1.25,13.18,1.97,26.42,3.18,39.6,1.62,17.71-3.54,34.21-9.14,50.56-10.42,30.39-16.37,61.54-18.75,93.56-1.92,25.88.8,50.86,10.25,75.04,6.34,16.26,13.5,32.18,21.11,47.9,1.77,3.66,2.9,7.43,3.37,11.49.73,6.33,2.75,7.77,8.78,6.32,15.75-3.8,31.25-8.52,45.45-16.37,13.02-7.2,26.41-10.58,41.29-8.22,14.73,2.33,29.51.54,44.18-.71,46.77-3.99,93.34-4.06,139.66,4.66,10.11,1.91,20.48,2.39,30.48,5.13,5.04,1.37,9.85,3.02,11.39,8.66,1.59,5.85-1.62,10.04-5.63,13.7-1.78,1.63-3.6,3.34-5.7,4.45-28.92,15.24-57.7,31.23-89.45,39.68-35.26,9.39-70.45,8.09-104.23-7.67-7.94-3.7-13.77-9.79-19.51-16-3.16-3.43-6.22-4.42-10.7-2.44-5.17,2.28-10.32,4.56-15.33,7.21-14.74,7.77-29.57,15.37-45.02,21.68-3.95,1.61-3.78,4.65-2.93,7.44,3.77,12.19,7.86,24.29,13.28,36.29,0-3.98-.26-7.97.07-11.93.29-3.54.6-7.95,5.71-7.59,4.85.34,5.09,4.33,4.96,8.16-.1,3.02-.27,6.04-.08,9.04.3,5.14-.46,8.99-7.17,7.86-3.22-.54-2.71,2.04-2.05,3.51,9.98,22.34,16.58,45.82,31.38,66.46,22.8,31.8,54.25,46.03,90.92,52.63,11.18,2.02,22.61.41,33.9,1.23,77.35,5.6,148.42-13.83,214.02-53.86,21.06-12.86,39.54-29.27,57.66-45.94,7.57-6.96,15.03-14.05,22.67-20.93,3.79-3.41,6.93-7.31,9.71-11.51,2.93-4.42,6.53-8.17,10.79-11.3,3.19-2.34,6.38-2.46,9.23.51,2.66,2.78,2.53,5.72,0,8.59-7.6,8.62-14.01,18.15-21.89,26.57-12.1,12.93-22.71,27.11-35.21,39.8-29.34,29.8-62.78,54.19-97.41,77.38-52.9,35.42-110.46,60.28-171.81,76.97-7.94,2.16-16.4,2.35-23.8,6.49-1.47.82-3.14.05-4.73-.27-6.21-1.22-7.16-.48-7.02,5.88.11,5.01.94,9.99-.02,15.01-.54,2.82,1.81,3.29,3.7,3.8,5.11,1.39,10.07,3,13.59,7.3,1.02,1.24,2.5,1.04,3.89,1.26,2.38.37,4.85.66,7.05,1.54,31.99,12.73,65.56,17.49,99.64,20.36,32.22,2.71,64.43,2.1,96.29-1.97,25.67-3.28,50.99-9.59,75.88-17.35,28.17-8.77,55.57-19.04,81.42-33.41,13.94-7.76,24.89-18.42,34.47-30.76,4.35-5.6,6.39-12.18,5.95-19.15-1.17-18.82-2.74-37.63-4.07-56.44-.66-9.22-1.58-18.44-1.56-27.66.06-24.71-1.92-49.34-.8-74.11,1.11-24.45-.67-48.99-.8-73.5-.17-32.37,5.05-63.85,11.6-95.29,1.88-9.01,3.95-17.98,5.73-27.01,1.07-5.42,3.5-7.01,9.51-6.89,29.54.54,57.89-3.94,82.28-22.48,11.98-9.12,19.28-21.59,24.86-35.02,14.07-33.86,19.7-68.75,12.06-105.19-8.53-40.65-50.2-55.15-82.79-41.42-22.61,9.53-36.11,26.81-45.01,48.63-7.62,18.7-11.15,38.39-14.48,58.14-.27,1.58-.72,3.14-.86,4.71-1.05,11.15-2.01,13.62-16.97,11.44-7.18-1.05-14.39-1.98-21.62-2.74-5.08-.54-7.26-3.48-8.2-8.14-2.35-11.45-.9-22.92.53-34.2,1.8-14.16-.37-28.05-.85-42.06-.57-16.12-6.4-31.42-7.17-47.52-1.46-30.82-3.39-61.45,3.99-92.1,5.71-23.73,9.43-48.16,7.14-72.71-2.32-24.94-4.45-49.93-9.29-74.58-.04-.19-.03-.41-.07-.6-1-4.33-1.85-9.43-5.24-11.92-4.75-3.49-7.64,2.61-11.02,4.57-19.69,11.42-41.2,17.32-63.34,21.41-8.3,1.53-18.73-5.25-22.4-14.36-1.97-4.87-3.06-9.93-2.03-15.3,1.93-10.03,2.93-20.28,8.04-29.83-4.57-.31-7.81,2.28-11.2,4.16-17.24,9.52-30.22,23.93-43.82,37.64-8.79,8.86-17.52,17.76-27.2,25.66-4.59,3.74-9.73,6.55-15.57,7.7-5.37,1.06-8.78-1.51-8.96-6.91-.33-9.77,1.06-19.18,6.59-27.66,4.49-6.88,7.54-14.48,11.55-23.24-13.15,8.44-24.51,16.9-35.71,25.61-14.84,11.55-28.33,24.56-42.24,37.14-8.41,7.61-17.56,14.11-28.28,18.25-2.3.88-4.61,1.46-7.06,1.56-9.48.4-13.55-4.9-10.39-13.79,3.02-8.44,6.24-16.82,9.51-25.55-2.22-.23-3.17,1.09-4.34,2-11.72,9.27-23,18.98-33.37,29.77-9.33,9.71-20.2,12.25-28.9,7.66-8.53-4.49-12.9-17.06-10.53-29.22,1.18-6.06,3.95-11.62,5.88-19.37-14.45,10.04-30.28,14.83-41.07,27.47-5.69,6.66-10.22,8.07-15.67,5.49-6.68-3.16-11.27-11.41-10.26-18.29.83-5.61,3.57-10.57,5.87-17.01-8.74,4.23-15.33,9.53-21.74,15.12-3.49,3.04-6.35,6.78-10.42,9.18-8.48,4.99-16.29,3.1-21.04-5.38-1.98-3.51-3.96-6.99-6.45-10.18-4.3-5.54-2.6-11.87-2.09-18,.12-1.47,1.31-2.87.1-4.86-3.94,5.24-5.77,11.17-7.79,16.94-9.99,28.7-16.52,58.26-21.81,88.1-3.32,18.75-6.53,37.52-9.31,56.35-.94,6.31-.46,12.84-.51,19.25,0,1.52-.63,3.51,1.01,4.44,1.73.98,2.92-.82,4.16-1.68,15.44-10.58,32.47-16.83,51.13-18.73,11.66-1.2,22.89,1.08,34.03,3.96,19.14,4.93,38.23,10,56.48,17.86,7.72,3.32,11.07,8.84,13.49,16.42,9.48,29.86,3.7,59-2.93,88.28-6.49,28.7-18.64,55.41-28.81,82.83-5.99,16.15-13.09,31.94-16.3,49.03-1.32,7.07-.96,14.04.96,20.88,3.43,12.28,11.92,18.27,26.33,18.83,11.38.45,22.67-.88,33.77-2.96,17.37-3.26,34.31-3.66,51.49,1.7,20.87,6.53,37.69-7.65,35.53-29.13-.52-5.21-.91-10.44-.21-15.64.47-3.49,1.56-6.82,6.08-6.97,4.41-.16,5.2,2.97,5.77,6.31,1.74,10.17,1.88,20.29.23,30.53-2.97,18.34-18.32,25.53-31.99,27.07-8.02.9-16.06.25-24.05-1.88-10.5-2.81-21.29-2.77-31.87-.36-13.05,2.98-26.31,4.11-39.57,5.49-32.36,3.36-54.79-20.9-49.46-52.85,3.09-18.49,11.94-34.88,17.61-52.39,6.19-19.07,15.25-37.07,21.08-56.34,3.56-11.79,5.46-23.79,7.52-35.83.32-1.85-.11-3.15-1.96-3.82-12.51,8.65-26.75,13.47-41.07,18-3.01.95-6.5,2.58-9.88.47v.08ZM620.67,580.8c-12.88,3.67-25.62,5.56-37.52-3-2.21.02-4.36-.29-6.55-.75-9.3-1.91-16.63-7.93-25.1-11.53-9.95,2.84-14.5-1.42-12.48-11.73.86-4.39,2.24-8.62,5.47-11.87,6.56-6.56,13.19-13.03,20.93-18.26,17.63-11.85,37.27-11.04,56.82-8.02,31.58,4.87,58.1,20.12,81.34,41.42,1.3,1.19,2.44,2.75,3.12,4.35,1.37,3.21,2.34,6.61-1,9.36-3.16,2.61-6.68,2.99-10.04.55-2.27-1.65-4.65-2.28-7.35-2.16-2.6,2.46-4.9,5.23-8.7,6.12-6.04,1.41-12,3.15-18.01,4.62-13.57,3.29-27.19,5.33-40.94.89h.01ZM592.44,459.09c13.75,0,27.68-1.42,41.23.26,42.08,5.21,77.91,24.19,109.37,51.86,3.04,2.68,3.89,6.04,2.32,9.82-1.79,4.29-5.36,5.82-9.75,5.76-4.18-.05-7.74-2.1-11.36-3.88-24.31-11.96-49.13-22.6-75.56-29.13-28-6.93-55.83-4.85-83.26,2.75-10.85,3-21.09,8.17-31.81,11.74-11.15,3.72-19.45-.18-23.79-10.38-1.98-4.66-2.6-9.64-3.55-14.56-.87-4.55.61-7.77,3.71-10.78,5.86-5.67,13.08-8.5,20.85-10.47,20.3-5.16,41.01-3.4,61.59-3h.01ZM930.28,649.58c12.48-.16,23.2,7.12,27.34,17.89,3.57,9.31,1.75,18.72-4.73,24.42-1.91,1.67-3.99,2.89-6.59,1.66-2.49-1.18-3.22-3.44-3.33-5.97-.11-2.51,1.19-4.62,1.94-6.89,1.51-4.57-1.48-11.86-6.03-14.69-4.59-2.87-7.63.6-10.68,3.03-8.45,6.69-13.76,15.67-18.01,25.34-1.75,4-4.43,6.3-8.99,5.02-4.46-1.24-5.12-4.73-4.55-8.62,1.18-7.94,2.44-15.86,3.72-23.78,3.05-18.89,7.17-37.46,17.42-54.07,7.56-12.27,18.17-20.88,31.74-25.83,8.04-2.93,15.92-2.21,23.37,2.01,3.08,1.75,4.7,4.45,3.89,8.09-.8,3.56-3.33,5.5-6.83,5.88-2.18.24-4.56.29-6.6-.37-5.13-1.66-9.66-.47-13.81,2.38-15.11,10.38-24.39,24.86-29.55,42.15-.91,3.05-.35,4.74,3.48,3.63,2.5-.72,5.15-.95,6.8-1.24v-.03ZM476.95,938.22c-12.19,3.11-24.69-1.1-37.35-1.48-6.25-.19-12.17-2.77-18-5.08-3.97-1.57-4.62-4.59-3.88-8.35.75-3.82,3.32-4.69,6.73-4.31,2.01.23,4,.54,6.02.71,17.83,1.47,35.42,6.48,53.59,3.22,8.53-1.53,17.16-2.43,25.57-4.65,4.63-1.22,9.33-.81,11.17,4.36,1.66,4.67-1.24,8.09-5.17,10.41-1.52.89-3.37,1.3-5.11,1.76-10.81,2.83-21.77,4.27-33.58,3.4ZM597.68,973.48c.61,5.31-.69,11.23-.91,17.19-.11,3.12-1.36,5.05-4.37,5.43-3.32.42-3.71-2.25-4.35-4.61-2.64-9.76-.22-19.46.39-29.17.16-2.52,1.73-4.08,4.37-3.97,2.65.11,4.76,1.23,4.86,4.22.12,3.39.03,6.79.03,10.89h0ZM736.36,908.29c-.1-.01-.21-.03-.31-.03.75-5.55,1.46-11.11,2.3-16.65.39-2.59.83-5.58,4.37-5.43,3.71.17,5.2,3.03,5.34,6.22.24,5.8.59,11.69-.1,17.42-.47,3.97-.34,10.09-6.87,9.28-5.86-.71-4.29-6.24-4.74-10.19-.03-.19,0-.4,0-.6h0ZM420.55,1022.81c.1-3.6-.27-7.23.95-10.72.81-2.34,2.42-3.62,4.91-3.72,2.26-.1,4.28.83,4.72,2.96,1.53,7.43,2.93,14.93,1.9,22.57-.32,2.28-1.47,4.14-4.07,4.63-2.82.53-4.57-.9-6.04-3.02-2.72-3.9-2.66-8.28-2.36-12.72h0ZM825.03,806.34c-.12-3.86-.05-8.87,1.41-13.7.73-2.42,1.36-5.36,4.97-4.91,3.2.4,5.32,2.53,5.42,5.55.25,8-.86,15.92-2.62,23.71-.59,2.63-3.12,4.49-6,3.98-2.9-.51-3.2-3.2-3.18-5.71v-8.93ZM754.37,836.87c-.13-1.79-.23-2.39-.21-2.98.13-4.34,1.25-8.43,6.4-8.62,5.51-.22,4.39,4.77,5.05,7.99,1.05,5.03-1.62,9.78-1.55,14.78.06,4.96-2.88,9.15-6.35,8.35-4.92-1.14-5.69-4.97-4.9-9.4.67-3.74,1.17-7.5,1.55-10.1h0ZM687.77,873.46c.4-3.22.68-7.02,1.4-10.74.45-2.34,2.25-3.74,4.79-3.84,2.36-.08,4,1.2,4.42,3.32,1.57,7.7,1.6,15.48.51,23.25-.4,2.89-2.67,3.88-5.26,3.99-2.71.11-4.03-1.8-4.41-4.09-.63-3.74-.94-7.53-1.45-11.89h0ZM487.26,1039.54c-.16,2.7-.09,5.73-.56,8.67-.46,2.92-2.67,4.33-5.57,4.65-2.92.31-4.71-1.23-5.23-3.87-1.34-6.72-1.31-13.5-.07-20.22.5-2.69,2.62-4.09,5.19-4.29,2.79-.22,4.28,1.62,5.23,4.09,1.33,3.5.71,7.11,1.01,10.98ZM509.82,999.65c0,2.99.29,6.01-.07,8.95-.44,3.54-2.5,5.78-6.4,5.89-4.06.12-4.4-3.09-4.79-5.71-.97-6.37-.4-12.73.84-19.03.49-2.47,2.03-3.97,4.5-4.07,2.66-.11,4.56,1.2,5.39,3.86,1.05,3.33.57,6.73.54,10.11ZM541.51,779.32c.29-2.58.44-5.19.91-7.73.47-2.62,2.48-3.41,4.95-3.48,2.22-.06,4.37.49,4.68,2.85.91,6.87,4.46,13.44,2.36,20.65-.59,2.05-.29,4.6-3.5,4.73-2.86.11-5.16-.65-6.29-3.56-1.69-4.32-3.06-8.71-3.09-13.45h-.01ZM777.66,875.06c.39-2.75-.68-7.33,1.63-11.4,1-1.75,2.31-3.48,4.63-3.43,1.93.04,3.83.95,4.22,2.86,1.64,7.94,2.56,15.91-1.12,23.6-1.02,2.13-2.8,3.56-5.35,3.09-2.5-.47-3.83-2.28-3.97-4.69-.17-2.8-.04-5.62-.04-10.03ZM635.28,1015.3c-.22-3.86.61-7.6,1.44-11.32.69-3.12,2.81-4.98,5.99-4.95,3.34.05,4.23,2.69,4.51,5.43.62,6.24-.4,12.43-.97,18.62-.25,2.7-2.25,4.14-4.92,4.55-3.17.49-4.12-1.63-5.06-4.03-1.06-2.71-.9-5.51-.99-8.3ZM549.3,997.5c.07,0,.16,0,.23-.01,0-2.8-.16-5.6.05-8.37.21-2.86.78-5.9,4.59-5.85,3.72.05,5.27,2.62,5.35,5.98.12,6.57.09,13.16.03,19.75-.03,2.79-1.4,4.55-4.4,4.56-2.78,0-4.65-1.2-4.9-4.13-.34-3.97-.62-7.95-.92-11.92h-.01ZM635.18,818.35c.01,3.24.09,6.39-3.19,7.47-3.22,1.06-4.62-1.95-6.04-3.94-4.05-5.67-4.07-12.38-4.3-18.94-.07-2.05,1.36-3.7,2.99-5.02,2.82-2.27,4.83-2.32,6.26,1.6,2.26,6.25,3.67,12.63,4.28,18.83ZM363.51,969.44c-.18,0-.36.02-.56.03,0,2.59.1,5.19-.02,7.77-.13,2.55-.96,4.89-3.97,5.13-3.1.24-5.75-1.02-6.49-4.14-1.58-6.68-1.63-13.45.02-20.16.57-2.33,1.99-3.94,4.62-3.95,2.75,0,4.72,1.28,5.14,4.04.57,3.73.86,7.51,1.28,11.27h-.01ZM688.33,975.55c.89,3.27.17,6.79-.37,10.35-.51,3.42-1.93,5.61-5.7,5.61s-4.53-2.68-4.96-5.58c-.92-6.2.07-12.33.86-18.45.31-2.37,1.84-3.93,4.45-4.1,2.73-.18,4.47.87,5.48,3.57,1.05,2.81.15,5.52.23,8.6ZM420,972.44c-.24,3.79-.43,6.99-.67,10.18-.17,2.25-1.25,3.73-3.66,4.05-2.48.33-4.58-.37-5.32-2.85-2.1-6.98-2.66-14.13-1.09-21.28.63-2.87,2.93-4.32,5.88-4.08,2.92.24,4.06,2.39,4.3,4.98.3,3.19.4,6.38.56,8.99ZM670.44,924.16c-.59,3.81.16,7.47-.97,11-.83,2.57-1.53,5.31-4.89,5.17-3.14-.12-4.23-2.53-4.85-5.29-1.58-7.08-.29-13.95,1.42-20.8.54-2.13,1.79-3.6,4.27-3.46,2.3.13,3.57,1.39,4.39,3.5,1.29,3.34.73,6.73.63,9.87ZM392.21,1007.63h-.26c0,3.4.29,6.83-.1,10.18-.32,2.68-2.37,4.04-5.2,4.03-2.48-.01-4.62-.85-4.98-3.42-.98-6.96-1.45-13.96.49-20.87.74-2.63,2.43-4.11,5.38-3.61,2.97.51,4.72,2.09,4.67,5.26-.04,2.8,0,5.61,0,8.42ZM599.68,1025.09c-.44,3.48-.52,7.32-2.14,10.86-1.11,2.41-3.02,3.85-5.78,3.38-2.9-.49-4.86-2.27-4.71-5.33.27-5.8.68-11.59,1.25-17.37.31-3.12,2.71-4.34,5.55-4.5,2.93-.17,4.46,1.64,4.89,4.31.44,2.77.62,5.57.95,8.66h-.01ZM349.72,913.07c.24-4.9-.02-8.49,1.15-12,.91-2.7,2.83-3.69,5.48-3.79,2.72-.09,3.18,1.93,3.74,3.88,1.77,6.22,1.37,12.65,1.77,18.97.21,3.32-2.27,4.84-5.49,5.14-3.11.3-5.18-1.05-5.75-4.02-.58-3.12-.73-6.32-.92-8.2v.02ZM292.47,803.08c.05-3.84-1.64-8.65,4.04-9.21,5.08-.52,7.51,3.33,8.36,7.85.58,3.14.68,6.36.94,9.56.27,3.33.41,7.08-4.05,7.32-4.06.22-7.63-1.71-8.52-6.13-.63-3.11-.53-6.38-.75-9.39h-.01ZM698.64,930.1c.29-2.14.75-5.48,1.19-8.83.45-3.5,2.04-6.5,5.83-6.42,4.19.09,4.67,3.9,4.93,7.05.39,4.54-1.09,9.01-.37,13.67.55,3.43-.85,6.37-5.17,6.47-4.06.1-5.74-2.3-6.14-5.91-.18-1.58-.16-3.18-.29-6.03h.01ZM577.62,776.1c.91-3.21-.34-8.31,5.12-8.52,5.21-.19,6.42,3.91,6.37,8.35-.05,4.4-.05,8.81-.17,13.21-.07,2.56.27,5.76-3.31,6.1-3.48.34-5.73-1.88-6.29-5.22-.75-4.53-1.14-9.11-1.72-13.92ZM512.19,776.01h-.23c.12,2.59.31,5.19.35,7.78.07,3.48-2.54,4.22-5.2,4.71-2.48.46-5.39.62-5.93-2.46-1.1-6.33-1.38-12.8,1.19-18.91,1.11-2.65,3.56-3.82,6.5-3.11,2.77.66,3.89,2.63,3.71,5.39-.15,2.19-.28,4.39-.41,6.6h.03ZM797.12,830.84h.1c0-3.39-.18-6.79.05-10.17.27-3.86,3.37-4.81,6.47-4.87,3.23-.06,3.74,2.69,3.72,5.13-.07,5.97-.27,11.96-.65,17.93-.25,3.73-3.08,5.1-6.31,5.03-3.23-.07-3.45-2.7-3.38-5.26.06-2.59,0-5.19,0-7.78ZM712.27,835.94c.72-5.6,1.5-11.15,2.12-16.72.28-2.49,1.36-4.38,3.89-4.66,2.88-.31,4.33,1.54,4.93,4.22,1.42,6.2.78,12.33-.37,18.47-.66,3.44-2.8,5.67-6.16,5.48-4.02-.22-3.99-3.82-4.4-6.79ZM627.1,969.94c-.05-4.59-.06-9.23,1.27-13.68.6-1.98,1.75-3.63,4.25-3.55,2.12.06,3.43,1.21,3.87,3.15,1.74,7.77,1.17,15.48-.83,23.12-.67,2.56-2.62,3.38-5.13,3.03-2.48-.35-3.29-2.15-3.4-4.27-.13-2.59-.03-5.2-.03-7.79ZM605.63,913.03c0-1.69-.17-4.5.04-7.29.29-3.84,3.65-3.87,6.31-4.31,2.02-.34,3.73,1,3.78,3.03.16,6.99.85,14.02-.99,20.93-.67,2.52-2.32,3.62-4.91,3.42-2.43-.19-3.46-1.64-3.83-3.88-.56-3.57-1.08-7.13-.41-11.89h0ZM527.64,1041.1h-.17c.19-3.39.18-6.79.62-10.15.49-3.87,3.63-4.25,6.79-4.45,2.49-.15,4.35,1.22,4.1,3.34-.74,6.28.18,12.8-2.26,18.83-.91,2.27-2.6,4.34-5.45,3.87-2.88-.47-3.62-2.82-3.63-5.44v-5.99h0ZM647.74,873.01c-.35-3.22,0-7.39,1.14-11.49.67-2.39,2.22-3.85,4.81-3.73,2.66.12,4.09,1.85,4.23,4.28.23,3.99.18,8.01.15,12.03,0,2.82-.34,5.64-1.87,8.11-1.19,1.93-2.67,3.8-5.3,3.16-2.3-.55-2.9-2.7-3.12-4.7-.23-2.19-.05-4.4-.05-7.64h0ZM430.2,783.61v5.1c0,3.39-2.13,5.03-5.08,5.78-3.6.91-4.47-1.91-5.36-4.33-1.52-4.13-2.64-8.34-2.59-12.81.02-3.28,1.34-5.36,4.63-5.96,3.59-.65,5.91,1.11,6.86,4.33.89,3.04,1.24,6.22,1.55,7.89ZM460.17,990.59c-.91,4.43-1.06,9.04-.97,13.66.06,3.09-1.84,4.33-4.56,4.47-2.34.12-4.67-.37-4.96-3.23-.52-5.35-1.62-10.62-.35-16.08.9-3.88,2.87-5.63,6.71-5.22,3.85.4,3.99,3.36,4.13,6.4ZM385.17,791.53c.55-4.5.97-8.87,1.62-13.21.47-3.14,2.2-5.32,5.7-4.75,3.33.53,4.64,2.62,4,6.1-.77,4.11-1.19,8.3-1.7,12.45-.38,3.08-.69,6.4-4.87,6.2-4.28-.22-4.92-3.4-4.75-6.78h.01ZM457.11,776.37c.25-3.43,1.69-6.31,5.84-6.88,4.31-.59,5.67,2.29,6.19,5.73.53,3.58.38,7.21-.41,10.72-.72,3.17-3.34,4.61-6.28,4.75-3.43.17-3.29-2.81-3.71-5.14-.52-2.96-1.05-5.91-1.62-9.21h0ZM386.44,952.86c-.13,1.54-.21,4.16-.62,6.72-.32,1.95-1.62,3.28-3.77,3.22-1.81-.05-3.97-.09-4.46-2.32-1.24-5.66-2.69-11.34-1.05-17.2.62-2.22,2.01-3.44,4.29-3.56,2.31-.12,3.71,1.04,4.59,3.16,1.2,2.91.96,5.9,1,9.96h.01ZM364.1,780.76c-.39,5.57-2.61,10.18-7.13,13.44-3.04,2.19-6.96.54-6.49-2.82.64-4.51.94-9.24,3.29-13.36,1.56-2.71,4.3-3.87,7.22-3.15,2.83.7,2.87,3.55,3.11,5.9h0ZM327.39,803.98h-.21c0-2.39-.22-4.79.06-7.14.26-2.09.43-4.7,3.32-4.98,2.67-.27,3.99,1.76,4.64,3.91,1.6,5.23,1.65,10.57.35,15.9-.53,2.17-1.84,3.6-4.24,3.37-2.31-.22-3.67-1.74-3.89-3.91-.23-2.37-.05-4.77-.05-7.14h.01ZM312.16,645.97c1.63.41,1.75,1.91,1.86,3.19.13,1.48-1.06,2.04-2.32,2.05-1.56.01-2.82-.65-2.43-2.46.3-1.39,1.32-2.36,2.89-2.77ZM406.52,707.32c.02-1.39.55-2.55,2.25-2.71,1.28-.12,2.55.34,2.55,1.75,0,1.7-1.24,3.02-2.76,3.44-1.68.46-1.48-1.36-2.05-2.47h.01Z"/>
    <path class="cls-6" d="M576.88,837.01c-13.39-4.6-27.44-3.97-40.74-7.27-33.26-8.22-66.39-2.25-99.58.1-8.86.63-17.77.75-26.64,1.23-4.63.25-13.35,12.18-12.19,16.57.63,2.43,2.94,3.08,4.83,4.22,14.83,8.99,31.65,11.29,48.23,14.68,13.21,2.7,25.47-1.48,38.21-3.02,20.01-2.43,38.61-10.04,58.28-13.44,10.89-1.88,19.83-8.28,29.63-13.08h-.01Z"/>
    <path class="cls-6" d="M318.25,868.43c-.18-.79-.38-1.56-.55-2.34-3.59-16.04-9.04-18.83-23.76-12.09-33.24,15.24-67.56,27.86-101.69,40.9-7.67,2.93-14.9,6.85-22.97,8.94-5.66,1.46-6.26,3.8-3.32,8.76,2.9,4.9,4.3,10.29,5.66,15.73.77,3.05,1.81,5.09,5.8,3.04,39.21-20.16,81.7-32.42,122.09-49.79,5.36-2.31,10.6-4.84,15.57-7.93,2.03-1.26,3.66-2.53,3.18-5.23h-.02Z"/>
    <path class="cls-3" d="M367.89,828.18c-3.48.13-6.7,1.11-9.87,2.55-8.41,3.82-16.93,7.42-25.37,11.19-6.31,2.82-7.01,4.73-4.46,11.27.44,1.12.89,2.23,1.34,3.34,3.99,9.9,4.95,10.35,14.82,5.27,10.54-5.42,20.94-11.07,31.37-16.67,2.33-1.25,3.79-2.94,2.2-5.85-.75-1.36-1.22-2.94-1.53-4.48-1.24-6.03-2.21-6.84-8.5-6.62Z"/>
    <path class="cls-6" d="M366.84,576.71c3.39,2.11,6.87.48,9.88-.47,14.32-4.53,28.56-9.35,41.07-18-9.29-10.4-20.26-18.26-33.84-22.27-3.44-1.01-5.02.22-4.8,3.75.17,2.8.39,5.59.52,8.38.56,11.68-2.73,21.65-12.85,28.61h.01Z"/>
    <path class="cls-6" d="M301.26,560.38c3.44,1.12,6.62,2.73,9.44,5.01,7.55,6.12,16.59,8.22,25.95,9.43-6.13-9-8.52-19.27-10.32-30.51-8.56,5.49-16.81,10.78-25.08,16.07Z"/>
    <path class="cls-4" d="M548.54,279.38c-1.9-.83-3.43.88-5.07,1.71-2.36,1.21-3.17,3.49-3.31,6.02-.03.82,0,1.81,1.03,1.81,2.69.02,5.11-1.05,7.45-2.22.33-.16.31-.98.47-1.5-7.21-1.65,1.05-3.35-.57-5.84h-.01Z"/>
    <path class="cls-4" d="M834.01,253.12c-.49,2.81-2.21,4.97.12,7.02.69.6,1.42.34,1.93-.46,1.59-2.49.78-4.36-2.06-6.56Z"/>
    <path class="cls-4" d="M550.53,114c-2.06.45-3.74,1.52-4.18,3.66-.18.9.72,2.05,1.88,1.56,1.72-.74,4.03-1.07,4.34-3.45.13-1.1-1.02-1.5-2.03-1.75h-.01Z"/>
    <path class="cls-1" d="M592.44,459.09c-20.59-.41-41.29-2.16-61.59,3-7.77,1.98-14.99,4.81-20.85,10.47-3.1,2.99-4.58,6.22-3.71,10.78.95,4.92,1.57,9.9,3.55,14.56,4.34,10.21,12.63,14.09,23.79,10.38,10.72-3.57,20.96-8.74,31.81-11.74,27.44-7.6,55.26-9.69,83.26-2.75,26.42,6.54,51.24,17.18,75.55,29.13,3.62,1.79,7.18,3.82,11.36,3.88,4.38.06,7.96-1.47,9.75-5.76,1.57-3.78.71-7.14-2.32-9.82-31.46-27.68-67.3-46.65-109.37-51.86-13.54-1.68-27.47-.27-41.23-.27h-.01Z"/>
    <path class="cls-1" d="M583.15,577.8c11.89,8.56,24.63,6.68,37.52,3,10.66-10.74,10.93-24.05,8.58-38.13,2.64.62,4.41.92,6.11,1.45,18.84,5.86,38.49,10.07,52.96,25.06,2.7-.11,5.08.51,7.35,2.16,3.36,2.44,6.88,2.05,10.04-.55,3.33-2.74,2.37-6.15,1-9.36-.68-1.6-1.82-3.16-3.12-4.35-23.24-21.28-49.76-36.55-81.34-41.42-19.55-3.02-39.2-3.83-56.82,8.03-7.76,5.21-14.39,11.69-20.93,18.25-3.23,3.24-4.61,7.48-5.47,11.87-2.03,10.3,2.53,14.56,12.48,11.73,3.94-6.59,9.5-11.32,16.6-14.3,3.02-1.26,5.17-.87,5.58,2.81.99,8.77,5.49,16.17,9.47,23.77h-.01Z"/>
    <path class="cls-1" d="M930.28,649.58c-1.64.29-4.29.52-6.8,1.24-3.83,1.11-4.39-.58-3.48-3.63,5.15-17.29,14.44-31.77,29.55-42.15,4.15-2.85,8.68-4.04,13.81-2.37,2.03.66,4.43.62,6.6.37,3.5-.39,6.03-2.32,6.83-5.89.81-3.63-.83-6.33-3.89-8.08-7.45-4.22-15.33-4.95-23.37-2.01-13.57,4.95-24.18,13.56-31.74,25.83-10.25,16.63-14.37,35.18-17.42,54.07-1.28,7.93-2.54,15.84-3.72,23.78-.59,3.9.09,7.39,4.55,8.63,4.57,1.28,7.23-1.03,8.99-5.02,4.24-9.67,9.57-18.64,18.01-25.35,3.05-2.42,6.09-5.9,10.69-3.03,4.55,2.85,7.54,10.13,6.03,14.69-.75,2.28-2.06,4.39-1.94,6.89.11,2.53.85,4.79,3.33,5.97,2.6,1.23,4.68,0,6.59-1.66,6.49-5.7,8.3-15.1,4.73-24.42-4.13-10.78-14.87-18.05-27.34-17.89v.04Z"/>
    <path class="cls-6" d="M688.33,569.15c-14.47-14.98-34.11-19.19-52.96-25.06-1.7-.53-3.49-.83-6.11-1.45,2.33,14.1,2.08,27.4-8.58,38.13,13.75,4.43,27.36,2.39,40.94-.89,6.03-1.46,11.98-3.21,18.01-4.62,3.82-.89,6.12-3.65,8.71-6.12Z"/>
    <path class="cls-1" d="M476.95,938.22c11.81.87,22.78-.56,33.58-3.4,1.74-.46,3.59-.87,5.11-1.76,3.93-2.32,6.83-5.74,5.17-10.41-1.84-5.17-6.55-5.57-11.17-4.36-8.41,2.22-17.05,3.11-25.57,4.65-18.17,3.26-35.75-1.75-53.59-3.22-2-.17-4.01-.48-6.01-.71-3.42-.39-5.97.48-6.73,4.31-.75,3.76-.11,6.78,3.88,8.35,5.83,2.3,11.75,4.88,18,5.08,12.66.39,25.16,4.6,37.35,1.48Z"/>
    <path class="cls-6" d="M583.15,577.8c-3.97-7.6-8.47-14.99-9.47-23.77-.43-3.7-2.56-4.09-5.58-2.81-7.1,2.98-12.67,7.71-16.6,14.3,8.47,3.62,15.8,9.63,25.1,11.53,2.2.45,4.34.77,6.55.75Z"/>
    <path class="cls-1" d="M597.68,973.48c0-4.1.09-7.5-.03-10.89-.11-3.01-2.21-4.13-4.86-4.22-2.64-.11-4.21,1.45-4.37,3.97-.61,9.71-3.02,19.41-.39,29.17.65,2.37,1.03,5.03,4.35,4.61,3.02-.38,4.26-2.3,4.37-5.43.22-5.97,1.52-11.88.91-17.19h0Z"/>
    <path class="cls-1" d="M736.36,908.29c0,.21-.03.4,0,.6.45,3.96-1.11,9.48,4.74,10.19,6.53.8,6.38-5.32,6.87-9.27.69-5.73.34-11.62.1-17.42-.13-3.2-1.63-6.06-5.34-6.22-3.55-.16-3.98,2.83-4.37,5.43-.84,5.54-1.53,11.1-2.3,16.65.1.01.21.03.31.03h0Z"/>
    <path class="cls-1" d="M420.55,1022.8c-.3,4.44-.38,8.82,2.35,12.72,1.48,2.12,3.23,3.55,6.04,3.02,2.6-.49,3.76-2.35,4.07-4.63,1.03-7.65-.37-15.14-1.9-22.57-.43-2.13-2.47-3.05-4.71-2.96-2.5.11-4.11,1.38-4.91,3.72-1.22,3.5-.85,7.13-.94,10.71Z"/>
    <path class="cls-1" d="M825.03,806.34v8.93c0,2.51.28,5.2,3.18,5.71,2.88.5,5.41-1.36,6-3.98,1.76-7.78,2.87-15.71,2.62-23.71-.1-3-2.22-5.15-5.42-5.55-3.61-.46-4.23,2.49-4.97,4.91-1.46,4.83-1.53,9.83-1.41,13.7Z"/>
    <path class="cls-1" d="M754.37,836.87c-.4,2.59-.9,6.36-1.55,10.1-.79,4.43-.03,8.25,4.9,9.4,3.46.81,6.4-3.39,6.34-8.35-.06-4.99,2.6-9.75,1.55-14.78-.67-3.22.45-8.2-5.05-7.99-5.14.21-6.26,4.28-6.4,8.63,0,.59.09,1.19.21,2.98h0Z"/>
    <path class="cls-1" d="M687.77,873.46c.51,4.36.81,8.14,1.45,11.89.39,2.3,1.71,4.2,4.41,4.09,2.59-.1,4.85-1.1,5.26-4,1.09-7.77,1.06-15.55-.51-23.25-.43-2.12-2.08-3.4-4.42-3.32-2.53.09-4.33,1.49-4.79,3.83-.72,3.72-1,7.52-1.4,10.74h0Z"/>
    <path class="cls-1" d="M487.26,1039.54c-.29-3.86.33-7.48-1.01-10.98-.95-2.47-2.43-4.32-5.23-4.09-2.58.21-4.69,1.62-5.19,4.3-1.25,6.73-1.26,13.5.07,20.22.52,2.64,2.31,4.19,5.23,3.87,2.88-.31,5.09-1.72,5.57-4.64.47-2.95.41-5.97.56-8.68Z"/>
    <path class="cls-1" d="M509.82,999.65c.02-3.38.51-6.78-.54-10.11-.84-2.67-2.73-3.97-5.39-3.86-2.47.1-4.01,1.6-4.5,4.07-1.24,6.31-1.81,12.66-.84,19.03.4,2.62.73,5.82,4.79,5.71,3.9-.11,5.97-2.35,6.4-5.89.36-2.94.07-5.97.07-8.95Z"/>
    <path class="cls-1" d="M541.51,779.32c.03,4.74,1.4,9.12,3.09,13.45,1.14,2.92,3.43,3.68,6.3,3.56,3.21-.13,2.9-2.68,3.5-4.73,2.1-7.21-1.45-13.79-2.36-20.65-.31-2.35-2.46-2.91-4.68-2.85-2.46.06-4.46.87-4.95,3.48-.46,2.55-.62,5.15-.91,7.73h.01Z"/>
    <path class="cls-1" d="M777.66,875.06c0,4.4-.13,7.23.04,10.03.15,2.41,1.47,4.22,3.97,4.69,2.55.47,4.31-.95,5.35-3.09,3.7-7.69,2.77-15.67,1.12-23.6-.4-1.91-2.3-2.82-4.22-2.86-2.32-.05-3.63,1.67-4.63,3.42-2.31,4.06-1.24,8.66-1.63,11.4Z"/>
    <path class="cls-1" d="M635.28,1015.3c.07,2.79-.08,5.58.99,8.3.94,2.4,1.87,4.53,5.06,4.03,2.67-.41,4.67-1.86,4.92-4.55.57-6.19,1.6-12.37.97-18.62-.28-2.74-1.17-5.39-4.51-5.43-3.17-.03-5.29,1.81-5.99,4.95-.83,3.72-1.66,7.45-1.44,11.32Z"/>
    <path class="cls-1" d="M549.3,997.5c.31,3.97.57,7.95.92,11.92.25,2.94,2.13,4.14,4.9,4.13,3,0,4.37-1.77,4.4-4.56.06-6.59.09-13.16-.03-19.75-.06-3.36-1.63-5.94-5.35-5.98-3.81-.05-4.37,2.99-4.58,5.85-.21,2.77-.05,5.59-.05,8.37-.07,0-.15,0-.23.01h0Z"/>
    <path class="cls-1" d="M635.18,818.35c-.61-6.19-2.02-12.58-4.28-18.83-1.42-3.93-3.44-3.88-6.26-1.6-1.63,1.3-3.05,2.97-2.99,5.02.23,6.56.25,13.27,4.3,18.94,1.42,1.99,2.82,5.01,6.04,3.94,3.28-1.08,3.2-4.22,3.19-7.47Z"/>
    <path class="cls-1" d="M363.51,969.44c-.41-3.76-.7-7.54-1.28-11.27-.43-2.76-2.39-4.04-5.14-4.04s-4.04,1.6-4.62,3.94c-1.65,6.71-1.6,13.47-.02,20.16.74,3.13,3.4,4.39,6.49,4.14,3.03-.24,3.84-2.58,3.97-5.13.13-2.58.02-5.19.02-7.77.18,0,.36-.03.56-.03h.01Z"/>
    <path class="cls-1" d="M688.33,975.55c-.09-3.08.81-5.79-.23-8.6-1.01-2.7-2.75-3.75-5.48-3.57-2.62.17-4.13,1.72-4.45,4.1-.79,6.12-1.8,12.25-.86,18.45.43,2.9,1.18,5.58,4.96,5.58s5.19-2.21,5.7-5.61c.53-3.56,1.24-7.08.37-10.35Z"/>
    <path class="cls-1" d="M420,972.44c-.16-2.61-.26-5.8-.56-8.99-.24-2.59-1.39-4.74-4.3-4.98-2.97-.24-5.26,1.22-5.88,4.08-1.57,7.15-1,14.3,1.09,21.28.74,2.47,2.84,3.17,5.32,2.85,2.41-.31,3.49-1.8,3.66-4.05.23-3.2.43-6.38.67-10.18Z"/>
    <path class="cls-1" d="M670.44,924.16c.09-3.14.66-6.53-.63-9.87-.81-2.11-2.1-3.37-4.39-3.5-2.48-.14-3.73,1.34-4.27,3.46-1.71,6.84-3,13.72-1.42,20.8.62,2.76,1.71,5.16,4.85,5.28,3.34.13,4.06-2.62,4.89-5.17,1.13-3.54.38-7.19.97-11Z"/>
    <path class="cls-1" d="M392.21,1007.63c0-2.81-.02-5.61,0-8.42.04-3.17-1.7-4.75-4.67-5.26-2.95-.51-4.64.98-5.38,3.6-1.93,6.9-1.48,13.91-.49,20.87.36,2.57,2.52,3.4,4.98,3.42,2.83.01,4.89-1.35,5.2-4.03.39-3.36.1-6.78.1-10.18h.26Z"/>
    <path class="cls-1" d="M599.68,1025.09c-.33-3.09-.51-5.89-.95-8.66-.42-2.66-1.95-4.49-4.88-4.31-2.85.17-5.24,1.38-5.56,4.5-.57,5.78-.99,11.57-1.25,17.37-.13,3.05,1.81,4.83,4.72,5.33,2.76.47,4.65-.96,5.77-3.38,1.63-3.54,1.7-7.38,2.14-10.86h.01Z"/>
    <path class="cls-1" d="M349.72,913.08c.19,1.87.34,5.08.92,8.2.56,2.97,2.63,4.31,5.75,4.02,3.22-.31,5.7-1.82,5.49-5.14-.4-6.34,0-12.76-1.77-18.97-.56-1.95-1.02-3.98-3.74-3.88-2.65.09-4.57,1.08-5.48,3.79-1.18,3.5-.91,7.11-1.15,12v-.02Z"/>
    <path class="cls-1" d="M292.47,803.08c.22,3.01.12,6.26.75,9.39.89,4.42,4.47,6.35,8.52,6.13,4.46-.24,4.31-3.99,4.05-7.32-.26-3.2-.35-6.42-.94-9.56-.84-4.52-3.27-8.37-8.36-7.85-5.68.58-3.99,5.38-4.04,9.21h.01Z"/>
    <path class="cls-1" d="M698.64,930.1c.12,2.85.11,4.45.29,6.03.4,3.61,2.08,6.01,6.14,5.91,4.32-.09,5.71-3.04,5.18-6.47-.74-4.65.75-9.13.37-13.67-.27-3.16-.74-6.96-4.93-7.06-3.79-.09-5.39,2.92-5.84,6.42-.43,3.36-.9,6.69-1.19,8.83h0Z"/>
    <path class="cls-1" d="M577.62,776.1c.57,4.81.96,9.4,1.72,13.92.56,3.34,2.82,5.56,6.29,5.22,3.56-.35,3.23-3.54,3.31-6.1.12-4.4.12-8.81.17-13.21.05-4.44-1.16-8.54-6.37-8.35-5.45.21-4.21,5.3-5.12,8.52Z"/>
    <path class="cls-1" d="M512.19,776.01c.13-2.2.27-4.39.41-6.6.18-2.76-.94-4.72-3.71-5.39-2.94-.71-5.4.47-6.5,3.11-2.56,6.1-2.3,12.57-1.19,18.91.54,3.08,3.45,2.93,5.93,2.46,2.66-.49,5.27-1.24,5.2-4.71-.05-2.59-.23-5.19-.35-7.78h.23-.02Z"/>
    <path class="cls-1" d="M797.12,830.84c0,2.59.05,5.19,0,7.78-.06,2.56.14,5.19,3.38,5.26,3.23.07,6.07-1.3,6.31-5.03.39-5.96.58-11.95.65-17.93.03-2.43-.49-5.19-3.72-5.13-3.1.06-6.2,1.02-6.47,4.88-.23,3.38-.05,6.78-.05,10.17h-.1Z"/>
    <path class="cls-1" d="M712.27,835.94c.41,2.97.39,6.56,4.4,6.79,3.37.18,5.51-2.05,6.16-5.48,1.17-6.14,1.8-12.27.37-18.47-.61-2.68-2.06-4.54-4.93-4.22-2.52.28-3.6,2.17-3.89,4.66-.63,5.57-1.4,11.12-2.12,16.72Z"/>
    <path class="cls-1" d="M627.1,969.94c0,2.59-.11,5.2.03,7.79.11,2.12.92,3.93,3.4,4.27,2.5.35,4.45-.47,5.13-3.03,1.99-7.64,2.56-15.36.83-23.12-.44-1.94-1.74-3.08-3.87-3.15-2.5-.07-3.66,1.57-4.25,3.55-1.33,4.45-1.32,9.07-1.27,13.68Z"/>
    <path class="cls-1" d="M605.63,913.03c-.67,4.74-.15,8.3.42,11.89.35,2.25,1.39,3.7,3.83,3.88,2.59.21,4.24-.89,4.91-3.42,1.84-6.9,1.14-13.93.98-20.93-.05-2.03-1.76-3.35-3.78-3.03-2.66.43-6.01.48-6.31,4.31-.21,2.78-.04,5.6-.04,7.28h-.01Z"/>
    <path class="cls-1" d="M527.64,1041.1v6c0,2.62.74,4.96,3.63,5.44,2.84.47,4.52-1.6,5.45-3.88,2.44-6.03,1.52-12.55,2.26-18.83.25-2.12-1.6-3.48-4.1-3.34-3.16.19-6.28.57-6.79,4.45-.44,3.36-.43,6.77-.62,10.15h.17Z"/>
    <path class="cls-1" d="M647.74,873.01c0,3.23-.18,5.45.05,7.64.22,2,.83,4.15,3.12,4.71,2.63.64,4.1-1.23,5.3-3.16,1.53-2.47,1.86-5.29,1.87-8.11.03-4,.07-8.02-.15-12.03-.15-2.43-1.57-4.15-4.23-4.28-2.6-.12-4.14,1.34-4.81,3.73-1.14,4.1-1.49,8.29-1.14,11.5h0Z"/>
    <path class="cls-1" d="M430.2,783.61c-.32-1.66-.66-4.86-1.55-7.89-.95-3.21-3.27-4.99-6.86-4.33-3.29.6-4.61,2.68-4.63,5.96-.04,4.48,1.07,8.7,2.59,12.81.89,2.4,1.76,5.22,5.36,4.33,2.95-.74,5.08-2.39,5.08-5.78v-5.1Z"/>
    <path class="cls-1" d="M460.17,990.59c-.15-3.04-.28-6.01-4.13-6.4-3.85-.4-5.82,1.35-6.71,5.22-1.26,5.47-.17,10.75.35,16.08.28,2.86,2.62,3.35,4.96,3.23,2.72-.14,4.62-1.39,4.56-4.47-.09-4.62.06-9.24.97-13.66Z"/>
    <path class="cls-1" d="M385.17,791.53c-.18,3.38.47,6.56,4.75,6.78,4.18.2,4.5-3.13,4.87-6.2.51-4.16.95-8.34,1.7-12.45.64-3.48-.68-5.56-4-6.1-3.5-.57-5.24,1.62-5.7,4.75-.64,4.34-1.08,8.71-1.62,13.21h-.01Z"/>
    <path class="cls-1" d="M457.11,776.37c.59,3.29,1.11,6.25,1.62,9.21.4,2.33.28,5.31,3.71,5.14,2.94-.15,5.57-1.58,6.28-4.75.79-3.52.95-7.15.41-10.73-.52-3.44-1.87-6.33-6.19-5.73-4.15.57-5.59,3.45-5.84,6.88h0Z"/>
    <path class="cls-1" d="M386.44,952.86c-.04-4.06.21-7.07-1-9.96-.87-2.12-2.27-3.28-4.59-3.16-2.28.12-3.67,1.34-4.29,3.56-1.64,5.86-.19,11.55,1.05,17.2.49,2.21,2.65,2.26,4.46,2.32,2.14.06,3.45-1.27,3.77-3.22.4-2.57.49-5.19.62-6.72h-.01Z"/>
    <path class="cls-1" d="M364.1,780.76c-.24-2.35-.28-5.19-3.11-5.9-2.92-.72-5.66.43-7.22,3.15-2.35,4.1-2.65,8.84-3.29,13.36-.47,3.37,3.45,5.01,6.49,2.82,4.52-3.24,6.75-7.86,7.13-13.44h0Z"/>
    <path class="cls-1" d="M327.39,803.98c0,2.37-.18,4.77.05,7.14.22,2.17,1.58,3.69,3.89,3.91,2.41.23,3.72-1.2,4.24-3.37,1.31-5.32,1.25-10.66-.35-15.9-.66-2.15-1.98-4.16-4.64-3.91-2.9.28-3.08,2.89-3.32,4.98-.28,2.35-.06,4.75-.06,7.14h.21-.01Z"/>
    <path class="cls-4" d="M312.16,645.97c-1.57.41-2.59,1.39-2.89,2.77-.39,1.81.87,2.47,2.43,2.46,1.26-.01,2.44-.57,2.32-2.05-.11-1.28-.22-2.77-1.86-3.19Z"/>
    <path class="cls-4" d="M406.52,707.32c.57,1.11.38,2.93,2.05,2.47,1.52-.41,2.77-1.74,2.76-3.44,0-1.41-1.29-1.86-2.55-1.75-1.7.15-2.24,1.32-2.25,2.71h-.01Z"/>
  </g>
</svg>