<?xml version="1.0" encoding="UTF-8"?>
<svg id="Layer_2" xmlns="http://www.w3.org/2000/svg" viewBox="0 0 391.27 381.4">
  <defs>
    <style>
      .cls-1 {
        fill: #232916;
      }
    </style>
  </defs>
  <g id="Layer_1-2" data-name="Layer_1">
    <g>
      <path class="cls-1" d="M389.9,183.17c1.91-83.44-2.24-178.25-101.54-179.71C180.06,5.96,7.78-33.67.41,103.7c5.57,115.27-32.24,277.71,119.93,277.58,198.21-2.78,283,28.63,269.57-197.93v-.18ZM346.91,274.96c-.17,23.53-12.5,48.61-35.52,56.85-8.54,3.12-17.68,3.91-26.65,4.6-52.75,3.85-112.42,1.58-168.68,1.32-28.94-.87-55.81-12.38-65.26-40.84-7.39-19.93-6.12-44.41-6.23-65.86.75-39.74-8.69-133.32,10.85-163.89,11.16-16.68,32.31-22.09,51.6-23.28,58.53.09,116.99-1.07,175.53-.59,10.52.24,22.23,1.89,31.11,6.55,60.85,33.63,27.34,162.32,33.26,224.95v.18Z"/>
      <path class="cls-1" d="M189.42,90.05c-83.38,1.33-115.35,100-75.38,162.82,18.92,30.27,52.18,43.79,87.94,41.87,129.24-1.28,127.75-215.21-12.31-204.7h-.24ZM197.13,250.54c-34.47.72-58.03-23.78-58.57-57.18-.97-29.57,18.37-58.78,49.45-61.77,83.76-11.51,95.83,120.11,9.36,118.95h-.24Z"/>
      <path class="cls-1" d="M322.2,74.14c-7.97-11.37-23.15-13.04-34.27-5.49-12.39,7.77-14,24.64-5.77,36.18,18.24,23.53,60.43-3.36,40.3-30.34l-.25-.35Z"/>
    </g>
  </g>
</svg>