<?xml version="1.0" encoding="UTF-8"?>
<svg xmlns="http://www.w3.org/2000/svg" version="1.1" viewBox="0 0 391.3 381.4">
  <defs>
    <style>
      .cls-1 {
        fill: #d73f70;
      }

      .cls-2 {
        fill: #5a6ab5;
      }

      .cls-3 {
        fill: #232916;
      }
    </style>
  </defs>
  <!-- Generator: Adobe Illustrator 28.7.3, SVG Export Plug-In . SVG Version: 1.2.0 Build 164)  -->
  <g>
    <g id="Layer_2">
      <path class="cls-3" d="M389.9,183.2c1.9-83.4-2.2-178.2-101.5-179.7C180.1,6,7.8-33.7.4,103.7c5.6,115.3-32.2,277.7,119.9,277.6,198.2-2.8,283,28.6,269.6-197.9v-.2h0ZM346.9,275c-.2,23.5-12.5,48.6-35.5,56.9-8.5,3.1-17.7,3.9-26.6,4.6-52.8,3.9-112.4,1.6-168.7,1.3-28.9-.9-55.8-12.4-65.3-40.8-7.4-19.9-6.1-44.4-6.2-65.9.8-39.7-8.7-133.3,10.9-163.9,11.2-16.7,32.3-22.1,51.6-23.3,58.5,0,117-1.1,175.5-.6,10.5.2,22.2,1.9,31.1,6.5,60.9,33.6,27.3,162.3,33.3,225v.2h0Z"/>
      <path class="cls-1" d="M189.4,90.1c-83.4,1.3-115.3,100-75.4,162.8,18.9,30.3,52.2,43.8,87.9,41.9,129.2-1.3,127.8-215.2-12.3-204.7h-.3ZM197.1,250.5c-34.5.7-58-23.8-58.6-57.2-1-29.6,18.4-58.8,49.4-61.8,83.8-11.5,95.8,120.1,9.4,118.9h-.2,0Z"/>
      <path class="cls-2" d="M322.2,74.1c-8-11.4-23.1-13-34.3-5.5-12.4,7.8-14,24.6-5.8,36.2,18.2,23.5,60.4-3.4,40.3-30.3l-.2-.3h0Z"/>
    </g>
  </g>
</svg>