<?xml version="1.0" encoding="UTF-8"?>
<svg id="Layer_2" xmlns="http://www.w3.org/2000/svg" viewBox="0 0 994.83 510.41">
  <defs>
    <style>
      .cls-1 {
        fill: #232916;
      }

      .cls-2 {
        fill: #ebe0af;
      }
    </style>
  </defs>
  <g id="Layer_1-2" data-name="Layer_1">
    <g>
      <path class="cls-1" d="M844.7,235.01c11.6,3.19,22.56,6.79,32.92,11.96,2.31,1.15,4.06.29,5.9-1.15,10.65-8.29,22.72-13.02,36.24-13.29,29.15-.58,52.53,17.63,60.37,46.67,3.01,11.16,3.73,22.62,3.89,34.07.23,15.99-.3,32,1.19,47.93,1.53,16.35,3.88,32.6,6.37,48.84,2.74,17.9,5.36,35.88.7,53.92-7.57,29.3-31.37,46.57-61.8,45.7-26.07-.75-45.28-16.5-52.97-41.23-3.75,7.71-7.52,15-12.8,21.35-13.52,16.25-37.54,23.85-57.45,14.12-2.04-1-3.63-.59-5.61-.05-14.75,4.05-29.55,6.14-44.46.63-5.85-2.16-10.98-5.58-15.59-9.6-2.62-2.29-4.15-2.05-6.59-.02-11.2,9.29-23.98,13.95-38.69,12.54-.83-.08-1.79.17-2.47-.18-10.96-5.57-21.76-1-32.58.54-14.9,2.12-29.19,1.21-41.82-8.01-2.4-1.75-3.87-.6-5.75.45-12.1,6.74-24.92,10.7-38.94,10.18-8.06-.3-15.82-1.98-23.02-5.46-3.27-1.58-6.19-1.76-9.57-1.06-16.26,3.35-32.53,4.67-48.7-.52-1.88-.6-4.08-.97-5.49-2.19-5.79-5.05-10.96-2.6-16.67.33-12.9,6.61-26.46,8.25-40.5,3.89-.47-.15-1.08-.14-1.41-.43-6.09-5.47-12.46-3.18-19.23-1.32-13.61,3.73-27.04,3-39.38-4.57-3.6-2.21-6.46-1.46-9.63.37-14.31,8.25-30.19,11.94-45.45,6.39-12.73-4.63-23.95-1.56-35.91-.08-13.32,1.65-26.5,1.8-38.73-5.27-5.88-3.4-11.72-2.36-17.5.81-13.21,7.26-27.26,9.65-41.71,4.96-5.95-1.94-11.1-1.83-16.76.2-11.51,4.12-22.77,4.24-33.18-3.26-2.74-1.98-5.04-.3-7.47.6-26.64,9.79-52.64,9.2-77.61-5.21-22.31-12.87-34.86-32.91-41.45-57.25C-.28,420.5-.48,399.27.37,377.98c1.16-29.04,7.13-56.97,21.91-82.3,18.44-31.61,44.85-52.94,81.49-59.82,6.8-1.28,13.86-2.01,20.86-1.38,3.19.29,4.22-.85,3.68-3.89-3.23-18.26.87-36.1,3.35-53.98,2.88-20.76,1.89-41.51,1.11-62.29-.78-20.79-2.07-41.69,4.68-61.79,7.78-23.16,23.14-39.2,47.51-44.36,18.2-3.86,35.62-1.38,48.89,13.47,7.43,8.32,9.96,18.9,11.39,29.7,2.8,21.06-.85,41.76-3.46,62.53-1.12,8.89-2.82,17.72-2.62,26.76.07,3.02,1.1,5.14,3.81,6.38,2.87,1.32,4.74-.48,6.55-2.25,4.91-4.79,6.2-11.28,7.67-17.5,4.24-18.02,7.5-36.29,12.29-54.16,6.17-22.99,17.44-43.05,37.69-56.87,18.01-12.29,38.12-15.51,59.38-13.11,12.17,1.38,23.56,5.22,33.93,11.87,1.9,1.22,3.07,1.49,4.8-.72C414.72,2.24,427.87-.45,442.25.06c15.75.56,28.6,6.52,37.7,19.72,4.04,5.85,6.01,12.47,7.43,19.33.52,2.51.97,3.98,4.32,1.91,10.53-6.52,27.04-8.36,37.5,1.77,3.32,3.21,4.01.29,4.88-2.03,5.89-15.81,16.13-28.05,31.56-34.8,18.38-8.04,37.38-9.2,53.22,4.96,6.06,5.43,8.9,4.51,15.29,2.02,19.06-7.44,38.22-7.98,55.91,4.48,3.22,2.27,6.03,5.24,8.62,8.25,1.48,1.72,2.31,1.73,3.9.44,22.93-18.56,49.81-23.96,78.2-21.35,32.37,2.98,58.89,16.88,72.6,48.04,9.79,22.26,8.75,44.55-5.09,65.48-2.09,3.16-7.17,5.16-6.55,8.69.52,2.99,4.91,5.14,7.15,8.01,7.55,9.68,11.5,20.9,12.73,32.97,2.14,21.11-.23,41.45-11.79,59.9-1.4,2.24-3.07,4.3-5.12,7.16ZM527.26,126.02c1.19-17.51,1.1-29.51.92-41.5-.16-11.03-3.71-17.04-11.42-19.51-11.22-3.59-26.49.17-29.93,14.98-1.01,4.35-2.2,8.64-2.63,13.11-1.76,18.23-2.38,36.52-3.09,54.82-.21,5.28-.93,10.61-2.1,15.76-1.28,5.61-5.02,7.71-10.41,6.76-4.48-.79-7.35-4.8-7.26-11.58.17-12.15.45-24.31,1.34-36.42.46-6.32.51-12.64.89-18.95,1.05-17.59,3.27-35.17,1.6-52.82-.86-9.07-3.59-17.52-12.8-21.53-9.89-4.3-20.06-4.06-29.91.32-6.02,2.68-7.86,6.78-6.26,13.32,1.96,8.02,4.74,15.86,6.35,23.94,5.2,26.03,4.52,51.24-12.18,73.67-1.75,2.35-.58,3,1.26,3.91,6.22,3.06,10.57,8.02,13.51,14.15,4.6,9.6,5.88,19.86,6.2,30.44.42,13.71-2.71,27.17-2.18,40.85.25,6.57,4.17,11.16,10.51,12.74,5.77,1.44,11.59.98,17.39.87,13.72-.26,23.81-6.4,29.63-19.01,1.94-4.2,3.48-8.56,4.64-13.07,4.48-17.42,5.45-35.35,7.89-53.07.59-4.25,1.47-8.46,2.39-12.66.23-1.07.99-2.23,2.47-2.02,1.38.2,1.89,1.31,1.97,2.51.16,2.49.25,4.99.28,7.49.24,18.79.42,37.58,3.84,56.16,3.65,19.89,11.48,28.96,28.81,31.19,14.44,1.86,28.61.73,40.44-9.4,9.32-7.98,14.23-18.7,17.75-30.02,8.77-28.22,14.86-56.98,17.22-86.51,1.49-18.64,1.66-37.25-.29-55.84-.72-6.92-2.3-13.74-5.71-19.93-8.91-16.15-31.89-13.95-42.16-4.23-8.67,8.21-12.67,18.87-15.05,30.22-5.6,26.74-5.27,53.88-5.31,80.99,0,5.65.55,11.33-.74,16.91-1.08,4.63-4.5,7.49-8.73,7.4-4.98-.11-7.52-2.87-8.2-7.63-.28-1.97-.89-3.92-.91-5.89-.09-12.16-.04-24.32-.04-30.95ZM961.13,334.47c0-6.16.26-12.34-.06-18.49-.58-11.43-1.6-22.79-5.73-33.66-5.62-14.78-17.14-23.29-31.6-24.02-17.21-.86-26.47,7.84-32.63,22.36-4.22,9.96-6.68,20.41-8.94,30.91-2.34,10.83-4.39,21.72-6.73,32.56-.51,2.36-1.08,5.89-3.79,5.77-2.44-.11-3.1-3.42-3.58-5.95-1.4-7.39-1.67-14.85-1.56-22.34.18-12.79,1.07-25.6-1.32-38.32-1.42-7.54-4.42-13.96-11.52-17.63-11.51-5.95-31.11-1.63-39.34,8.43-8.8,10.76-12.04,23.59-12.97,36.93-1.6,23.01.85,45.83,5.37,68.39,5.45,27.22,10.42,54.47,9.49,82.41-.13,3.99-.05,8-.12,11.99-.07,4.46,2.1,7.08,6.36,8.24,10.55,2.87,21.79-2.97,25.87-13.26,3.09-7.78,2.34-15.79,1.39-23.64-2.27-18.76-7.51-37.06-9.09-55.93-.79-9.42-1.57-18.91.52-28.32.53-2.38,1.5-5.06,3.98-5.07,2.67,0,3.41,3.07,3.75,5.24.97,6.23,1.51,12.52,2.25,18.78,1.62,13.84,3.59,27.61,8.9,40.63.62,1.53,1.31,3.04,2.1,4.49,2.85,5.13,6.9,8.44,13.08,8.45,6.03.02,9.42-3.88,11.86-8.56,8.03-15.4,10.46-32.34,13.11-49.2.9-5.7,1.04-11.56,3.66-16.91.81-1.64,1.89-2.93,3.72-2.79,1.67.13,2.39,1.6,2.71,3.16.27,1.29.72,2.57.79,3.88.91,16.03-.77,31.9-3.48,47.64-2.59,15.07-5.51,30.05-4.52,45.48.82,12.75,8,22.5,19.66,26.04,8.3,2.52,16.82,2.7,25.16.74,12.06-2.84,20.12-10.22,23.46-22.49,4.27-15.67.89-31.08-1.66-46.42-4.37-26.36-9.94-52.56-8.58-79.53ZM21.2,391.24c-.36,9.37.44,18.63,2.13,27.83,3.32,18.11,9.82,34.72,23.04,48.08,16.59,16.78,36.32,22.64,59.16,16.22,11.96-3.37,21.42-10.34,27.17-21.75.79-1.56,1.67-3.72,3.88-3.28,2.01.4,2.47,2.43,2.74,4.32.29,1.97.5,3.98,1.09,5.87,1.42,4.57,3.53,8.47,8.74,9.98,10.08,2.92,17.7-1.23,20.92-12.65,4.76-16.84,4.98-34.13,3.78-51.46-.67-9.77-1.62-19.51-4.54-28.93-3.93-12.67-11.16-22.38-24.68-25.51-12.82-2.96-25.77-2.79-38.32,1.53-10.27,3.54-17.13,10.45-19.11,21.53-2.28,12.76,3.85,19.47,16.8,18.17,3.2-.32,6.57-1.17,8.5,2.19,1.9,3.32.88,6.76-.86,9.95-3.92,7.15-15.8,13.08-24.3,11.87-9.19-1.31-13.56-7.86-15.79-15.94-2.87-10.39-2.99-21.01-1.22-31.64,2.92-17.62,8.53-34.41,17.22-49.95,5.58-9.99,17.03-10.28,23.78-1.06,4.42,6.04,9.85,9.7,17.26,10.45,12.97,1.33,32.09-2.93,36.52-22,5.21-22.42-2.66-47.54-29.78-54.07-11.8-2.84-23.76-2.46-35.61-.1-21.85,4.35-37.46,17.85-49.97,35.29-20.33,28.37-28.38,60.57-28.54,95.05ZM558.28,395.87c.02-24.15-1.67-48.23-3.29-72.29-.86-12.72-2.01-25.45-4.7-37.98-3.55-16.52-12.74-24.02-28.92-23.22-9.1.45-14.29,5.48-15.17,14.6-.81,8.49-.07,16.96.38,25.43,1.15,21.44,2.45,42.87,3.5,64.31.25,5.14-.46,10.29-2.63,15.08-.75,1.66-1.61,3.56-3.77,3.51-2.56-.07-2.49-2.41-2.69-4.11-.99-8.41-2.07-16.81-2.66-25.25-1.36-19.38-3.3-38.69-7.2-57.72-4.64-22.64-17.55-37.24-45.47-32.92-10.36,1.6-15.17,6.6-15.43,17.22-.27,11,1.23,21.92,1.6,32.9.61,17.9-.18,35.94-8.09,52.1-8.05,16.43-5.38,29.41,6.33,42.58,8.78,9.88,12.76,22.19,13.4,35.61.42,8.87-1.01,17.58-1.31,26.37-.13,3.78,1.63,5.87,4.84,7.25,9.68,4.19,21.19-2.41,22.13-12.87.3-3.3.37-6.69-.02-9.98-2.36-20.11-4.87-40.19-7.36-60.29-1.33-10.76-1.95-21.56-1.29-32.37.15-2.53-.22-6.86,2.9-7.18,3.52-.35,3.25,3.98,3.81,6.48,4.82,21.49,7.01,43.48,12.08,64.93,2.82,11.93,5.85,23.81,11.95,34.59,10.29,18.19,28.62,19.89,44.52,14.17,10.73-3.86,14.81-13.86,17.43-24.02,4.8-18.66,5.13-37.8,5.15-56.94ZM707.33,192.88c1.04,9.75.56,19.93,1.77,30.04,1.32,11.05,5.7,16.59,16.79,18.49,21.62,3.71,43.46,4.54,65.05.7,16.61-2.95,31.13-10.49,39.88-26.09,6.03-10.75,7.66-22.45,7.46-34.58-.4-23.52-11.52-39.63-33.52-47.88-10.2-3.82-21-5.88-31.09-10.08-10-4.16-18.45-9.87-21.04-21.38-2.03-9.02,1.59-17.45,8.69-20.07,8.06-2.98,16.76,1.13,20.83,9.93.83,1.79,1.39,3.72,2.04,5.59,2.34,6.7,6.72,11.51,13.57,13.49,15.05,4.34,31.99,1.37,35.72-18.91,3.82-20.77-5.93-42.43-25.34-53.59-18.29-10.51-37.84-12.26-58.2-8.18-34.79,6.97-52.97,31.23-52.31,65.37.49,25.39,9.01,35.58,33.36,42.88,10.76,3.23,21.87,5.44,32.2,10,9.31,4.11,15.82,10.76,17.69,21.24,2.16,12.11-6.25,20.3-18.19,17.53-7.26-1.69-11.58-6.63-14.57-13.15-5.1-11.1-14.45-15.99-26.06-17.25-7.41-.8-11.39,1.98-12.99,9.2-1.92,8.67-1.27,17.55-1.74,26.71ZM355.18,262.38c-7.93-.08-14.89.11-21.86.96-12.95,1.58-20.39,7.48-24.25,20.11-1.85,6.06-2.52,12.35-2.78,18.64-.55,12.99-.1,25.94.78,38.93,1.35,20.08,4.45,39.92,6.73,59.88,1.91,16.69,3.2,33.47,1.8,50.32-.68,8.12-.96,16.27-1.44,24.4-.22,3.7,1.6,5.75,4.99,7.05,19.47,7.46,36.49-5.65,33.89-26.14-1.59-12.53-3.22-25.06-4.46-37.62-.57-5.76-.98-11.64.71-17.37.49-1.67,1.27-3.3,3.07-3.58,1.99-.3,3.46.93,4.23,2.74,1.29,3.04,2.7,6.06,3.64,9.22,3.33,11.14,4.5,22.74,7.06,34.04,2.05,9.04,3.89,18.33,10.52,25.37,9.44,10.04,26.57,11.57,40.14,4,11.23-6.26,16.12-20.08,12.83-34.88-3.22-14.5-12.86-24.44-23.25-33.9-5.67-5.16-11.52-10.15-16.03-16.39-4.69-6.49-3.72-10.83,3.44-14.44,13.26-6.69,21.04-17.53,24.17-31.73,3.05-13.83,2.88-27.65-.73-41.47-4.81-18.43-15.89-30.72-34.4-35.61-9.68-2.56-19.71-2.84-28.78-2.55ZM608.21,300.85c0-5.82.21-11.66-.04-17.47-.52-11.87-6.25-18.72-17.17-19.32-14.48-.8-20.01,4.23-20.7,17.79-.33,6.48-.23,12.99-.1,19.48.81,41.12,1.61,82.24-1.09,123.32-.54,8.27-1.52,16.53-2.68,24.73-1.04,7.37-2.65,14.65-3.9,21.99-.92,5.43.88,9.61,5.02,10.66,8,2.02,16.14,2.5,24.01-.52,7.19-2.76,12.29-7.49,13.84-15.55.67-3.48.93-6.91.94-10.39.04-12.99-1.07-25.92-1.81-38.87-.64-11.07,3.94-15.71,13-16.2,9.47-.51,12.85,3.42,12.66,14.52-.04,2.15-.43,4.29-.57,6.45-.86,12.93-3.19,25.77-2.48,38.8.63,11.56,4.99,17.88,14.45,19.94,7.86,1.71,15.82,1.89,23.75.06,9.56-2.21,16.07-7.62,18.37-17.41.83-3.54,1.49-7.11,1.54-10.8.26-17.5-1.72-34.87-2.84-52.3-1.8-27.89-3.69-55.78-4.45-83.74-.32-11.71-.2-23.6-3.59-35.09-3.44-11.67-10.66-16.67-24.38-16.52-10.05.11-17.11,6.18-19.83,16.93-2.4,9.46-2.29,19.12-2.27,28.74.02,12.99,1.46,25.91,2.2,38.86.53,9.32-4.28,13.71-13.67,13.48-8.2-.21-12.96-5.48-12-14.26,1.72-15.72,2.53-31.49,3.8-47.27ZM218.6,442.74c-.32-6.32-.71-12.64-.95-18.96-.35-8.95,3.31-12.84,12.28-13.21,1.5-.06,3-.09,4.5-.03,10.19.38,12.79,3.16,12.84,13.4.06,12.66-2.6,25.16-2.08,37.87.4,9.77,5.36,15.77,14.84,17.7,4.14.84,8.28,1.24,12.39.8,19.2-2.03,27.09-6.77,29.93-26.6,2.79-19.48.38-38.84-2.61-58.09-3.3-21.27-6.84-42.52-10.5-63.73-2.81-16.3-5.35-32.71-11.05-48.34-4.6-12.61-12.69-21.79-26.75-23.81-6.41-.92-12.9-1.31-19.42-1.02-24.31,1.09-32.68,13.71-37.82,31.56-3.16,10.98-5.11,22.23-7.56,33.37-4.96,22.49-5.34,44.99-1.92,67.78,2.49,16.62,3.34,33.44,1.9,50.29-.91,10.6-1.61,21.21-2.38,31.82-.24,3.32,1.01,5.7,4.21,7.12,11.5,5.11,25.89-1.5,28.91-13.58,2-7.99,1.46-16.19,1.24-24.34ZM357.27,243.27c4.58.29,10.25.03,15.83-.88,10.73-1.76,20.94-4.68,29.23-12.44,13.13-12.28,16.61-40.21,10.57-54.96-2.36-5.77-6.64-9.15-12.45-10.32-9.09-1.83-17.84-.65-25.67,4.72-3.97,2.72-7.77,5.69-11.67,8.5-8.27,5.95-17.15,6.29-25.78,1.51-9.22-5.1-13.41-13.6-12.95-24.08.3-6.77,5.72-10.49,12.44-9,9.43,2.09,18.8,3.4,28.59,2.29,16.97-1.92,33.73-14.74,38.82-30.91,6.57-20.9,5.69-41.62-3.04-61.7-5.63-12.95-14.61-23.23-28.59-27.32-26.9-7.86-52.93,2.42-67.36,26.5-16.47,27.48-21.86,57.93-23.14,89.44-.21,5.27,1.75,8.74,5.81,11.7,6.31,4.61,10.63,10.75,13.51,18.06,5.13,13.06,6.03,26.8,6.78,40.53.85,15.77,7.58,24.37,21.66,26.47,8.72,1.3,17.5,2.03,27.43,1.89ZM157.21,124.25c.37,18.09-.02,43.33-4.81,68.33-1.9,9.92-3.61,19.93-3.17,30.15.38,8.67,3.99,13.44,12.28,15.92,4.02,1.21,8.19,1.57,12.32,1.64,29.82.54,59.62-.05,89.32-2.95,11.83-1.16,21.11-6.5,25.3-18.56,2.7-7.76,2.52-15.66,1.82-23.65-1.83-20.75-17.63-32.29-37.97-27.98-8.24,1.74-15.47,5.62-22.84,9.4-4.92,2.52-10.27,6-15.86,2.35-5.65-3.7-4.92-10.07-4.03-15.54,4.06-24.85,9.18-49.53,11.35-74.67.99-11.43,2.12-22.89-.63-34.24-1.02-4.23-2.73-8.14-5.79-11.41-9.52-10.14-30.96-10.23-42.04-.36-7.87,7.02-11.3,16.15-13.18,26.07-3.03,15.98-2.39,32.15-2.08,55.5ZM694.25,363.85c0,10.99-.25,21.99.07,32.97.32,10.97,1.11,21.93,1.88,32.89.98,13.95,1.94,27.89,2.06,41.88.04,4.53,2.11,7.91,6.73,8.48,9.04,1.12,19.29-1.18,20.4-14.66.91-11.02-.71-21.95-.26-32.92.31-7.42,4.36-11.73,11.73-12.08,8.54-.41,12.67,2.58,13.33,10.48.66,7.79.65,15.63.97,23.44.58,14.08,6.12,22.44,16.63,25.46,3.62,1.04,7.28.59,10.91.58,16.03-.03,24.27-8.19,24.55-24.17.3-17.05-2.28-33.81-5.63-50.42-4.22-20.92-8.72-41.79-13.68-62.54-4.34-18.17-7.21-36.72-13.5-54.39-7.42-20.86-17.89-27.87-39.84-26.35-11.27.78-21.6,4.12-27.2,15.28-3.29,6.55-5.26,13.51-6.32,20.78-3.18,21.66-2.89,43.48-2.84,65.27ZM692.21,187.56c.34-10.6-.1-21.9-3.08-32.88-3.1-11.45-10.5-19.5-22.1-21.91-12.15-2.53-24.32-2.17-33.32,8.6-5.35,6.41-6.42,14.41-7.48,22.26-2.43,18.01-2.07,36.15-2.1,54.27,0,3.87.52,7.65,1.21,11.38,1.53,8.29,6.09,12.55,14.64,14.04,5.25.92,10.55,1.28,15.9,1.01,20.11-1,30.53-10.19,34.52-29.78,1.78-8.73,1.87-17.47,1.81-27ZM629.2,79.7c-.32,5.31.27,11.59.98,17.88,1.2,10.56,6.9,17.7,16.14,19.65,6.24,1.31,12.47.93,18.73-.45,8.3-1.83,13.18-6.75,14.2-15.09,1.95-16.02,2.7-32.13.8-48.19-1.62-13.65-10.56-21.7-22.53-22.21-16.49-.7-23.56,7.29-26.34,21.62-1.65,8.5-2.13,17.11-1.97,26.78Z"/>
      <path class="cls-2" d="M527.26,126.02c0,6.63-.04,18.79.04,30.95.01,1.96.63,3.92.91,5.89.68,4.76,3.22,7.52,8.2,7.63,4.23.09,7.65-2.77,8.73-7.4,1.3-5.58.73-11.26.74-16.91.05-27.11-.28-54.25,5.31-80.99,2.38-11.35,6.38-22.02,15.05-30.22,10.27-9.73,33.25-11.92,42.16,4.23,3.42,6.19,4.99,13.02,5.71,19.93,1.94,18.59,1.78,37.2.29,55.84-2.36,29.53-8.46,58.29-17.22,86.51-3.52,11.32-8.42,22.04-17.75,30.02-11.83,10.13-26,11.25-40.44,9.4-17.33-2.23-25.16-11.3-28.81-31.19-3.41-18.58-3.6-37.37-3.84-56.16-.03-2.5-.11-5-.28-7.49-.08-1.21-.59-2.31-1.97-2.51-1.48-.21-2.23.94-2.47,2.02-.92,4.19-1.8,8.41-2.39,12.66-2.45,17.72-3.42,35.65-7.89,53.07-1.16,4.51-2.7,8.87-4.64,13.07-5.82,12.6-15.91,18.75-29.63,19.01-5.8.11-11.62.57-17.39-.87-6.34-1.58-10.25-6.17-10.51-12.74-.53-13.68,2.6-27.15,2.18-40.85-.32-10.58-1.6-20.84-6.2-30.44-2.94-6.13-7.29-11.09-13.51-14.15-1.84-.91-3.01-1.56-1.26-3.91,16.7-22.44,17.38-47.64,12.18-73.67-1.61-8.08-4.39-15.92-6.35-23.94-1.6-6.54.24-10.63,6.26-13.32,9.84-4.39,20.02-4.62,29.91-.32,9.21,4,11.94,12.46,12.8,21.53,1.67,17.65-.55,35.23-1.6,52.82-.38,6.31-.43,12.63-.89,18.95-.89,12.11-1.18,24.27-1.34,36.42-.09,6.78,2.78,10.79,7.26,11.58,5.39.95,9.13-1.15,10.41-6.76,1.17-5.15,1.89-10.48,2.1-15.76.71-18.29,1.34-36.58,3.09-54.82.43-4.46,1.62-8.75,2.63-13.11,3.45-14.81,18.71-18.57,29.93-14.98,7.71,2.47,11.26,8.48,11.42,19.51.17,11.99.26,23.99-.92,41.5Z"/>
      <path class="cls-2" d="M961.13,334.47c-1.36,26.97,4.2,53.17,8.58,79.53,2.54,15.34,5.93,30.75,1.66,46.42-3.35,12.27-11.4,19.65-23.46,22.49-8.34,1.96-16.85,1.78-25.16-.74-11.66-3.54-18.84-13.29-19.66-26.04-.99-15.43,1.92-30.41,4.52-45.48,2.71-15.75,4.39-31.62,3.48-47.64-.07-1.3-.52-2.59-.79-3.88-.33-1.56-1.04-3.03-2.71-3.16-1.83-.14-2.92,1.15-3.72,2.79-2.62,5.35-2.76,11.21-3.66,16.91-2.65,16.87-5.08,33.81-13.11,49.2-2.44,4.67-5.83,8.57-11.86,8.56-6.18-.02-10.24-3.32-13.08-8.45-.8-1.44-1.48-2.96-2.1-4.49-5.31-13.03-7.28-26.79-8.9-40.63-.73-6.26-1.28-12.55-2.25-18.78-.34-2.17-1.08-5.25-3.75-5.24-2.48,0-3.45,2.69-3.98,5.07-2.09,9.4-1.32,18.9-.52,28.32,1.58,18.87,6.82,37.17,9.09,55.93.95,7.85,1.7,15.87-1.39,23.64-4.08,10.29-15.32,16.13-25.87,13.26-4.26-1.16-6.44-3.78-6.36-8.24.06-4-.02-8,.12-11.99.93-27.95-4.03-55.19-9.49-82.41-4.52-22.56-6.96-45.38-5.37-68.39.93-13.33,4.17-26.17,12.97-36.93,8.23-10.06,27.83-14.38,39.34-8.43,7.1,3.67,10.11,10.09,11.52,17.63,2.39,12.72,1.49,25.52,1.32,38.32-.1,7.49.17,14.95,1.56,22.34.48,2.53,1.14,5.85,3.58,5.95,2.71.12,3.28-3.42,3.79-5.77,2.33-10.83,4.39-21.73,6.73-32.56,2.27-10.5,4.72-20.95,8.94-30.91,6.16-14.52,15.42-23.22,32.63-22.36,14.46.72,25.98,9.23,31.6,24.02,4.13,10.88,5.15,22.24,5.73,33.66.31,6.15.06,12.33.06,18.49Z"/>
      <path class="cls-2" d="M21.2,391.24c.16-34.48,8.21-66.68,28.54-95.05,12.5-17.45,28.12-30.94,49.97-35.29,11.85-2.36,23.81-2.74,35.61.1,27.12,6.53,34.99,31.65,29.78,54.07-4.43,19.06-23.54,23.32-36.52,22-7.41-.76-12.84-4.41-17.26-10.45-6.75-9.22-18.2-8.93-23.78,1.06-8.69,15.54-14.29,32.33-17.22,49.95-1.76,10.63-1.65,21.25,1.22,31.64,2.23,8.07,6.61,14.63,15.79,15.94,8.5,1.21,20.38-4.71,24.3-11.87,1.75-3.19,2.77-6.62.86-9.95-1.93-3.36-5.3-2.51-8.5-2.19-12.96,1.3-19.09-5.41-16.8-18.17,1.98-11.09,8.85-18,19.11-21.53,12.55-4.32,25.5-4.49,38.32-1.53,13.52,3.12,20.75,12.83,24.68,25.51,2.92,9.43,3.87,19.17,4.54,28.93,1.19,17.32.97,34.62-3.78,51.46-3.22,11.42-10.84,15.56-20.92,12.65-5.21-1.51-7.32-5.4-8.74-9.98-.59-1.89-.8-3.9-1.09-5.87-.28-1.89-.73-3.92-2.74-4.32-2.21-.44-3.09,1.72-3.88,3.28-5.75,11.41-15.21,18.39-27.17,21.75-22.84,6.43-42.57.56-59.16-16.22-13.22-13.36-19.72-29.96-23.04-48.08-1.68-9.19-2.48-18.45-2.13-27.83Z"/>
      <path class="cls-2" d="M558.28,395.88c-.02,19.14-.35,38.27-5.15,56.94-2.62,10.16-6.7,20.16-17.43,24.02-15.89,5.72-34.22,4.02-44.52-14.17-6.1-10.79-9.13-22.66-11.95-34.59-5.07-21.45-7.26-43.44-12.08-64.93-.56-2.5-.29-6.83-3.81-6.48-3.12.31-2.75,4.65-2.9,7.18-.66,10.81-.04,21.61,1.29,32.37,2.49,20.09,5,40.18,7.36,60.29.39,3.28.31,6.68.02,9.98-.94,10.45-12.44,17.06-22.13,12.87-3.2-1.39-4.96-3.47-4.84-7.25.3-8.8,1.73-17.5,1.31-26.37-.64-13.42-4.62-25.73-13.4-35.61-11.71-13.17-14.38-26.15-6.33-42.58,7.92-16.16,8.7-34.21,8.09-52.1-.37-10.97-1.87-21.9-1.6-32.9.26-10.63,5.07-15.62,15.43-17.22,27.92-4.32,40.83,10.29,45.47,32.92,3.9,19.03,5.84,38.34,7.2,57.72.59,8.44,1.68,16.85,2.66,25.25.2,1.69.13,4.04,2.69,4.11,2.16.06,3.02-1.85,3.77-3.51,2.17-4.79,2.88-9.94,2.63-15.08-1.05-21.44-2.35-42.87-3.5-64.31-.45-8.47-1.2-16.94-.38-25.43.88-9.12,6.07-14.15,15.17-14.6,16.18-.8,25.37,6.7,28.92,23.22,2.69,12.53,3.84,25.26,4.7,37.98,1.62,24.07,3.31,48.15,3.29,72.3Z"/>
      <path class="cls-2" d="M707.33,192.88c.47-9.16-.17-18.04,1.74-26.71,1.6-7.22,5.58-10.01,12.99-9.2,11.61,1.26,20.96,6.15,26.06,17.25,2.99,6.51,7.31,11.46,14.57,13.15,11.93,2.77,20.35-5.42,18.19-17.53-1.87-10.48-8.38-17.13-17.69-21.24-10.32-4.56-21.43-6.77-32.2-10-24.35-7.3-32.87-17.49-33.36-42.88-.66-34.14,17.52-58.4,52.31-65.37,20.36-4.08,39.91-2.33,58.2,8.18,19.41,11.16,29.16,32.82,25.34,53.59-3.73,20.28-20.66,23.26-35.72,18.91-6.85-1.98-11.23-6.79-13.57-13.49-.65-1.87-1.21-3.79-2.04-5.59-4.07-8.79-12.77-12.9-20.83-9.93-7.1,2.63-10.72,11.05-8.69,20.07,2.58,11.51,11.03,17.22,21.04,21.38,10.09,4.2,20.89,6.26,31.09,10.08,22,8.24,33.12,24.35,33.52,47.88.21,12.13-1.43,23.84-7.46,34.58-8.75,15.6-23.27,23.14-39.88,26.09-21.59,3.84-43.44,3.02-65.05-.7-11.09-1.91-15.47-7.44-16.79-18.49-1.21-10.12-.73-20.29-1.77-30.04Z"/>
      <path class="cls-2" d="M355.18,262.38c9.07-.28,19.1,0,28.78,2.55,18.51,4.89,29.6,17.18,34.4,35.61,3.6,13.82,3.78,27.65.73,41.47-3.13,14.2-10.91,25.04-24.17,31.73-7.15,3.61-8.13,7.94-3.44,14.44,4.51,6.24,10.37,11.23,16.03,16.39,10.39,9.46,20.03,19.4,23.25,33.9,3.29,14.8-1.6,28.62-12.83,34.88-13.57,7.57-30.71,6.04-40.14-4-6.62-7.05-8.46-16.34-10.52-25.37-2.57-11.3-3.74-22.9-7.06-34.04-.94-3.15-2.35-6.18-3.64-9.22-.77-1.81-2.24-3.05-4.23-2.74-1.8.28-2.58,1.91-3.07,3.58-1.69,5.73-1.28,11.61-.71,17.37,1.24,12.56,2.88,25.09,4.46,37.62,2.6,20.49-14.42,33.6-33.89,26.14-3.38-1.3-5.21-3.34-4.99-7.05.48-8.13.77-16.28,1.44-24.4,1.4-16.86.11-33.63-1.8-50.32-2.28-19.95-5.38-39.8-6.73-59.88-.87-12.99-1.33-25.94-.78-38.93.27-6.29.93-12.58,2.78-18.64,3.86-12.63,11.3-18.54,24.25-20.11,6.98-.85,13.93-1.04,21.86-.96ZM345.2,336.82c.15,5.46-.46,10.94,1,16.35,1.15,4.26,2.73,7.91,7.9,8.1,5.4.2,9.88-2.92,11.01-8.09,1.23-5.65,2.55-11.36,2.9-17.1.42-6.91,1.22-13.98-.87-20.79-1.57-5.15-5.77-8.06-10.79-7.88-5.31.19-7.81,3.45-9.19,8.21-2.02,6.96-1.94,14.08-1.97,21.2Z"/>
      <path class="cls-2" d="M608.21,300.85c-1.27,15.78-2.08,31.55-3.8,47.27-.96,8.78,3.8,14.06,12,14.26,9.39.24,14.2-4.16,13.67-13.48-.74-12.95-2.18-25.87-2.2-38.86-.02-9.63-.13-19.29,2.27-28.74,2.73-10.75,9.79-16.81,19.83-16.93,13.72-.15,20.93,4.85,24.38,16.52,3.39,11.49,3.27,23.38,3.59,35.09.76,27.96,2.65,55.85,4.45,83.74,1.12,17.43,3.09,34.79,2.84,52.3-.05,3.7-.71,7.26-1.54,10.8-2.3,9.79-8.8,15.21-18.37,17.41-7.93,1.83-15.89,1.65-23.75-.06-9.47-2.06-13.82-8.37-14.45-19.94-.71-13.04,1.62-25.87,2.48-38.8.14-2.15.53-4.29.57-6.45.19-11.1-3.2-15.03-12.66-14.52-9.07.48-13.64,5.13-13,16.2.75,12.95,1.85,25.89,1.81,38.87,0,3.48-.27,6.92-.94,10.39-1.55,8.06-6.65,12.79-13.84,15.55-7.88,3.02-16.01,2.54-24.01.52-4.14-1.04-5.94-5.22-5.02-10.66,1.25-7.34,2.86-14.62,3.9-21.99,1.16-8.21,2.14-16.47,2.68-24.73,2.7-41.08,1.9-82.2,1.09-123.32-.13-6.49-.23-13,.1-19.48.7-13.56,6.22-18.58,20.7-17.79,10.93.6,16.65,7.46,17.17,19.32.25,5.81.04,11.65.04,17.47Z"/>
      <path class="cls-2" d="M218.6,442.74c.22,8.15.76,16.34-1.24,24.34-3.02,12.08-17.41,18.69-28.91,13.58-3.2-1.42-4.45-3.8-4.21-7.12.77-10.61,1.47-21.22,2.38-31.82,1.44-16.85.6-33.67-1.9-50.29-3.42-22.79-3.04-45.28,1.92-67.78,2.46-11.14,4.4-22.4,7.56-33.37,5.14-17.86,13.51-30.47,37.82-31.56,6.52-.29,13.01.1,19.42,1.02,14.06,2.03,22.15,11.2,26.75,23.81,5.69,15.62,8.24,32.03,11.05,48.34,3.66,21.22,7.2,42.46,10.5,63.73,2.99,19.25,5.4,38.61,2.61,58.09-2.84,19.83-10.73,24.57-29.93,26.6-4.11.43-8.25.04-12.39-.8-9.48-1.93-14.44-7.93-14.84-17.7-.52-12.71,2.14-25.2,2.08-37.87-.05-10.23-2.65-13.02-12.84-13.4-1.5-.06-3-.03-4.5.03-8.97.37-12.63,4.26-12.28,13.21.25,6.32.63,12.64.95,18.96ZM221.35,361.49c0,2.16-.29,4.37.06,6.47.8,4.74,1.58,9.49,7.09,11.57,10.06,3.8,18.77-1.89,18.68-12.74-.09-11.29-1.4-22.52-2.9-33.71-.91-6.74-4.24-10.19-9.37-10.37-4.96-.17-9.49,3.92-10.44,10.12-1.47,9.5-2.84,19.02-3.12,28.65Z"/>
      <path class="cls-2" d="M357.27,243.27c-9.93.13-18.71-.59-27.43-1.89-14.08-2.1-20.81-10.7-21.66-26.47-.74-13.73-1.64-27.48-6.78-40.53-2.87-7.31-7.2-13.45-13.51-18.06-4.06-2.97-6.02-6.44-5.81-11.7,1.28-31.5,6.67-61.95,23.14-89.44,14.43-24.08,40.46-34.36,67.36-26.5,13.98,4.08,22.96,14.37,28.59,27.32,8.73,20.08,9.61,40.8,3.04,61.7-5.08,16.17-21.85,28.99-38.82,30.91-9.79,1.11-19.16-.21-28.59-2.29-6.72-1.49-12.14,2.23-12.44,9-.46,10.48,3.73,18.98,12.95,24.08,8.64,4.78,17.52,4.43,25.78-1.51,3.91-2.81,7.71-5.78,11.67-8.5,7.83-5.37,16.58-6.55,25.67-4.72,5.81,1.17,10.08,4.56,12.45,10.32,6.05,14.75,2.57,42.68-10.57,54.96-8.29,7.75-18.5,10.68-29.23,12.44-5.59.92-11.25,1.17-15.83.88ZM364.18,100.54c.26-5.47.1-10.92-2.83-15.88-5.02-8.5-17.67-8.64-22.02.19-5.25,10.66-5.79,22.07-2.03,33.33,2.21,6.63,6.11,8.62,13.04,8.3,5.66-.26,10.15-3.8,11.87-9.63,1.56-5.29,2.32-10.71,1.96-16.31Z"/>
      <path class="cls-2" d="M157.21,124.25c-.3-23.35-.95-39.52,2.08-55.5,1.88-9.92,5.3-19.05,13.18-26.07,11.07-9.87,32.52-9.78,42.04.36,3.06,3.26,4.76,7.18,5.79,11.41,2.75,11.36,1.62,22.81.63,34.24-2.17,25.14-7.29,49.82-11.35,74.67-.89,5.47-1.62,11.84,4.03,15.54,5.59,3.65,10.94.18,15.86-2.35,7.37-3.78,14.59-7.66,22.84-9.4,20.34-4.31,36.14,7.23,37.97,27.98.7,7.98.88,15.88-1.82,23.65-4.2,12.06-13.47,17.41-25.3,18.56-29.7,2.9-59.5,3.49-89.32,2.95-4.13-.07-8.3-.43-12.32-1.64-8.29-2.49-11.91-7.25-12.28-15.92-.44-10.21,1.26-20.22,3.17-30.15,4.79-25,5.18-50.24,4.81-68.33Z"/>
      <path class="cls-2" d="M694.25,363.85c-.04-21.79-.33-43.62,2.84-65.27,1.07-7.27,3.04-14.23,6.32-20.78,5.6-11.16,15.93-14.5,27.2-15.28,21.95-1.53,32.42,5.49,39.84,26.35,6.29,17.67,9.16,36.22,13.5,54.39,4.96,20.75,9.46,41.63,13.68,62.54,3.35,16.61,5.93,33.37,5.63,50.42-.28,15.98-8.52,24.14-24.55,24.17-3.63,0-7.28.46-10.91-.58-10.52-3.02-16.05-11.38-16.63-25.46-.32-7.82-.32-15.66-.97-23.44-.66-7.9-4.8-10.88-13.33-10.48-7.37.35-11.42,4.66-11.73,12.08-.46,10.98,1.16,21.91.26,32.92-1.11,13.48-11.36,15.77-20.4,14.66-4.62-.57-6.69-3.95-6.73-8.48-.12-13.99-1.09-27.93-2.06-41.88-.77-10.95-1.56-21.91-1.88-32.89-.32-10.98-.07-21.98-.07-32.97ZM751.35,377.9c-.88-9.63-1.83-20.55-2.88-31.46-.45-4.61-.68-9.29-3.04-13.48-2.59-4.59-7.29-5.05-10.39-.82-1.15,1.57-2.29,3.46-2.53,5.32-2.03,15.95-5.21,31.78-5.28,47.93-.03,6.68,3.44,11.36,9.08,11.71,5.2.32,11.99-1.32,14.14-8.5.95-3.16.44-6.27.9-10.7Z"/>
      <path class="cls-2" d="M692.21,187.56c.06,9.53-.04,18.26-1.81,27-3.99,19.6-14.41,28.79-34.52,29.78-5.35.26-10.65-.1-15.9-1.01-8.54-1.49-13.1-5.76-14.64-14.04-.69-3.73-1.21-7.51-1.21-11.38.03-18.12-.33-36.26,2.1-54.27,1.06-7.86,2.13-15.86,7.48-22.26,9-10.77,21.18-11.13,33.32-8.6,11.59,2.41,18.99,10.45,22.1,21.91,2.98,10.99,3.42,22.28,3.08,32.88Z"/>
      <path class="cls-2" d="M629.2,79.7c-.16-9.67.32-18.28,1.97-26.78,2.78-14.33,9.86-22.32,26.34-21.62,11.98.51,20.91,8.56,22.53,22.21,1.91,16.05,1.15,32.16-.8,48.19-1.02,8.34-5.9,13.26-14.2,15.09-6.26,1.38-12.49,1.76-18.73.45-9.24-1.95-14.94-9.09-16.14-19.65-.71-6.28-1.3-12.56-.98-17.88Z"/>
      <path class="cls-1" d="M345.2,336.82c.03-7.13-.05-14.24,1.97-21.2,1.38-4.76,3.88-8.02,9.19-8.21,5.02-.18,9.21,2.73,10.79,7.88,2.09,6.81,1.29,13.88.87,20.79-.35,5.74-1.67,11.45-2.9,17.1-1.13,5.17-5.61,8.29-11.01,8.09-5.17-.19-6.76-3.84-7.9-8.1-1.46-5.41-.85-10.89-1-16.35Z"/>
      <path class="cls-1" d="M221.35,361.49c.28-9.63,1.65-19.15,3.12-28.65.96-6.2,5.48-10.29,10.44-10.12,5.13.18,8.46,3.62,9.37,10.37,1.5,11.18,2.81,22.41,2.9,33.71.09,10.84-8.62,16.54-18.68,12.74-5.51-2.08-6.29-6.83-7.09-11.57-.35-2.1-.06-4.31-.06-6.47Z"/>
      <path class="cls-1" d="M364.18,100.54c.36,5.6-.4,11.02-1.96,16.31-1.72,5.83-6.21,9.37-11.87,9.63-6.94.32-10.83-1.68-13.04-8.3-3.76-11.26-3.23-22.67,2.03-33.33,4.35-8.83,17-8.69,22.02-.19,2.93,4.97,3.09,10.42,2.83,15.88Z"/>
      <path class="cls-1" d="M751.35,377.9c-.46,4.43.05,7.54-.9,10.7-2.15,7.18-8.94,8.82-14.14,8.5-5.64-.35-9.11-5.03-9.08-11.71.07-16.15,3.26-31.98,5.28-47.93.24-1.86,1.38-3.75,2.53-5.32,3.1-4.23,7.8-3.77,10.39.82,2.36,4.19,2.6,8.87,3.04,13.48,1.06,10.91,2.01,21.83,2.88,31.46Z"/>
    </g>
  </g>
</svg>