<?xml version="1.0" encoding="UTF-8"?>
<svg id="Layer_2" xmlns="http://www.w3.org/2000/svg" viewBox="0 0 417.08 416.02">
  <defs>
    <style>
      .cls-1 {
        fill: #232916;
      }

      .cls-2 {
        fill: #ebe0af;
      }
    </style>
  </defs>
  <g id="Layer_1-2" data-name="Layer_1">
    <path class="cls-2" d="M416.46,209.06c1.63,21.97.36,27.96-7.53,48.25-3.02,8.29-4.91,16.96-7.8,25.27-2.1,6.01-4.78,11.78-7.32,17.62-5.82,13.9-10.69,27.55-22.32,37.35-4.86,4.5-10.03,8.76-14.74,13.45-12.55,12.62-22.37,28.23-37.74,37.73-10.27,6.52-22.07,9.87-33.41,14.01-9.49,3.35-18.63,7.57-28.41,9.96-10.35,2.59-21.38,2.93-32.16,3.25-18.89.5-37.75-1.83-56.49-3.88-14.97-1.86-28.37-8.85-42.29-14.8-12.11-5.2-25.42-8.82-36.45-15.82-7.03-4.36-13.08-10.04-19.21-15.56-5.07-4.6-10.31-9.03-14.88-14.12-7.03-7.66-11.45-17.27-17.17-26.11-4.14-6.51-9.01-12.52-13.08-19.07-8.4-14.16-13.65-30.83-17.65-46.94-3.13-15.78-3.97-32.13-6.38-48.11-4.61-28.47,2.8-41.51,11.59-67.41,3.43-10.73,5.29-21.82,10.33-31.54,3.92-7.71,9.94-14.37,15.06-21.71,6.78-9.71,12.37-20.12,21.04-28.23,14.62-13.13,29.54-26.61,46.43-36.65,20.75-11.59,44.16-18.83,67.8-21.29C185.2,3.46,196.49-.23,208.14.01c11.29.33,22.75,4.85,34.33,6.59,24.23,3.44,49.23,8.08,70.94,19.65,8.63,4.64,15.99,11.18,22.93,18.02,6.35,6.32,13.12,12.3,19.92,18.08,10.2,8.28,17.06,19.21,24.56,30.04,4.97,7.04,10.39,13.79,14.83,21.19,7.58,12.32,11.06,26.54,14.19,40.53,2.44,11.15,5.27,22.25,5.91,33.52.44,7.06.35,14.15.69,21.22v.21Z"/>
    <path class="cls-1" d="M322.85,192.68c-5.11-5.05-11.32-9.03-17.21-13.12-7.35-5.04-14.27-10.47-22.19-15.03-21.19-12.25-44.51-19.14-67.2-27.93-14.92-5.67-30.75-10.68-45.81-15.12-6.73-2.04-13.65-4.23-20.67-4.83-15.06-1.55-21.27,7.8-24.15,21.2-2.32,11.11-3.55,21.66-4.85,33.21-2.27,24.6-.25,49.17,1.05,73.74.74,10.12,2.01,20.14,3.28,29.6,1.41,9.22,2.52,20.45,8.64,27.63,9.34,10,24.75,3.54,35.83,0,21.41-6.93,43.3-15.83,63.59-25.81,16.41-7.98,33.65-15.6,49.14-25.45,8.91-5.65,16.26-11.84,24.6-17.64,13.74-9.76,33.7-23.4,16.04-40.32l-.11-.11Z"/>
  </g>
</svg>