<?xml version="1.0" encoding="UTF-8"?>
<svg id="Layer_2" xmlns="http://www.w3.org/2000/svg" viewBox="0 0 408.76 405.05">
  <defs>
    <style>
      .cls-1 {
        fill: #232916;
      }
    </style>
  </defs>
  <g id="Layer_1-2" data-name="Layer_1">
    <path class="cls-1" d="M402.96,154.88C364.31-8.88,166.87-47.96,55.67,62.54,7.62,109.39-10.68,185.27,6.09,252.31c67.93,258.91,454.02,163.27,396.93-97.19l-.06-.24ZM76.09,265.25c-.01-.12-.04-1.2-.03-1.18,0-.02.02,1.06.03,1.18h0ZM284.04,301.6c-.68-.04-2.76-.4-3.29-.55.61.19,3.24.58,3.29.55h0ZM297.98,306.21c.05,0,.1-.01.15-.02-.05,0-.1.01-.15.02ZM308.01,298.04c-7.24,14.45-46.84-7.17-58.84-11.92-15.8-7-33.58-14.29-50.18-15.87-9.4-.88-18.83-1.18-28.23-1.6-27.99-1.4-55.7,9.45-83.12,6.81-1.55-.2-3.03-.39-4.49-.81-6.78-1.69-5.88-10.2-3.84-15.43,4.92-12.72,30.79-14.47,43.12-18.08,1.32-.32-4.5,1.13-2.59,1.35,2.21.17,3.89-.03,6.8-.21,47.62-4.07,96.02.37,140.98,16.22,4.48,1.33,6.09,2.75,9.47,5.12,6.84,4.41,16.34,8.07,22.86,12.88,5.63,4.69,11.32,14.69,8.1,21.43l-.05.11ZM304,302.94s0,0,0,0c0,0,0,0,0,0ZM277.14,262.41c.14.06,1.52.86,1.51.87,0,0-1.37-.8-1.51-.87h0ZM281.47,265.34c.35.3,1.36,1.25,1.61,1.49-.19-.19-1.61-1.51-1.61-1.49h0ZM287.69,269.01c.12.03.23.06.34.09-.11-.03-.23-.06-.34-.09ZM335.1,240.3c-10.09,28.3-77.15-31.81-159.64-32.87-6.66-.24-14.58-.13-20.56.23-14.74,1.01-26.83,2.3-41.63,4.83-10.77,1.5-22.27,5.74-32.92,1.7-7.17-2.89-11.44-10.42-9.66-17.66,1.92-7.37,9.45-11.41,16.18-13.82,12.39-4.26,26.49-6.96,39.12-8.91,48.74-5.92,210.01,13.65,209.12,66.4l-.02.1ZM356.15,180.47c-5.41,4.39-14.13,2.97-21.8.89-26.36-7.77-52.49-25.96-79.34-31.82-44.77-8.93-91.14-13.93-136.27-5.04-14.57,2.34-29.9,8.52-44.67,6.51-11.18-1.43-16.93-12.43-15.42-22.98,2.27-18.34,25.79-20.6,41.93-23.6,47.35-14.19,303.54,12.7,255.67,75.96l-.1.08Z"/>
  </g>
</svg>