<?xml version="1.0" encoding="UTF-8"?>
<svg id="Layer_2" xmlns="http://www.w3.org/2000/svg" viewBox="0 0 250.78 241.81">
  <defs>
    <style>
      .cls-1 {
        fill: #fdba29;
      }
    </style>
  </defs>
  <g id="Layer_1-2" data-name="Layer_1">
    <path class="cls-1" d="M194.09,241.11c-8.78.34-16.59-4.62-24.03-9.84-12.37-8.67-24.37-17.89-36.52-26.88-6.44-4.77-6.69-4.58-13.08.68-13.34,10.98-26.37,22.4-40.89,31.83-16.32,10.61-42.96,3.69-47.12-17.41-1.95-9.89-.08-19.44,2.2-29,2.91-12.25,7.81-23.85,11.46-35.85,1.97-6.45.94-9.43-4.62-13.16-8.94-6-18.06-11.74-27.1-17.6-5.08-3.3-9.7-7.16-12.2-12.8-5.1-11.5-1.1-23.43,10.01-29.96,7.53-4.43,15.74-6.91,24.5-7.18,8.15-.25,16.29-.33,24.42.87,6.87,1.01,9.86-.92,12.89-8.11,5.32-12.63,9.08-25.89,15.35-38.15,3.26-6.37,6.86-12.51,11.3-18.14,11.26-14.29,31.04-13.77,41.61.99,7.16,10,10.03,21.92,14.96,32.91,3.19,7.09,5.72,14.45,9.75,21.18,2.78,4.63,6.43,6.73,11.87,6.52,11.8-.45,23.52-2.36,35.36-1.98,6.48.21,12.93.95,19.08,3.13,17.01,6.04,22.49,22.69,12.51,37.73-4.36,6.57-10.04,11.97-15.57,17.51-3.53,3.54-6.94,7.21-10.64,10.56-8.32,7.52-10.34,16.3-6.89,26.99,3.8,11.76,8.47,23.35,9.99,35.73,1.14,9.29,1.27,18.58-4.21,26.92-5.54,8.44-13.35,12.56-24.39,12.52Z"/>
  </g>
</svg>