<?xml version="1.0" encoding="UTF-8"?>
<svg xmlns="http://www.w3.org/2000/svg" version="1.1" viewBox="0 0 358.2 393.3">
  <defs>
    <style>
      .cls-1 {
        fill: #01f1e9;
      }

      .cls-2 {
        fill: #fe0150;
      }

      .cls-3 {
        fill: #232916;
      }

      .cls-4 {
        fill: #fd0351;
      }
    </style>
  </defs>
  <!-- Generator: Adobe Illustrator 28.7.3, SVG Export Plug-In . SVG Version: 1.2.0 Build 164)  -->
  <g>
    <g id="Layer_2">
      <g>
        <path class="cls-3" d="M99.5,306.5c.2.1.4.3.7.4.9,1.2,1.7,2.5,2.8,3.6,2.7,2.7,5.4,5.3,8.5,7.5,2.7,2,5.6,3.7,8.6,5.1,4,1.8,8.2,3.3,12.6,4.2,8.5,1.6,17,1.3,25.3-.9,5.2-1.3,10.1-3.6,14.7-6.5,4.7-3,9-6.7,12.6-11.1,3.5-4.3,6.4-8.9,8.6-14,3-7,4.3-14.4,4.3-22,0-84.8,0-169.5,0-254.3,0-.6,0-1.2,0-1.8,0-.7.2-1.1,1-1.1.4,0,.8,0,1.2,0,9.1,0,18.1,0,27.2,0,5.9,0,11.8,0,17.7,0,.7,3.7,1.6,7.4,2.7,11,1.7,5.7,4.1,11.3,7.1,16.5,2.4,4.4,5.2,8.6,8.3,12.5,5.6,7.1,12.3,13.2,19.6,18.5.6.4,1.1.9,1.9.9,0,0,0,0,0,0,.2.5.5.9,1.1.9.4.3.8.7,1.2,1,.3.5.4,1.1,1.2,1,0,0,0,0,0,0-.1.7.4,1,.8,1.4,4.3,4.3,9,8.2,14,11.5,5.5,3.6,11.2,6.6,17.3,9,4.5,1.8,9.1,3,13.8,4.1,0,0,0,.1.1.2,0,.8,0,1.6,0,2.4,0,15.5,0,30.9,0,46.4,0,1.9,0,1.9-1.9,1.9-.3,0-.7,0-1,0-10.2-.3-20.2-1.3-30.2-3.5-7.1-1.6-14.1-3.6-20.9-6.1-4-1.5-8.1-3.1-11.9-5-3.1-1.6-6.3-2.9-9.3-4.7-4.6-2.7-9.3-5.3-13.6-8.6-.3-.2-.7-.7-1.4-.4v2.2c0,42,0,84,0,126,0,5.8,0,11.5-.8,17.3-.8,5.9-2,11.7-3.5,17.5-.6,2.5-1.7,5-2.4,7.5-1.2,4.2-3.1,8.2-5,12.2-1.5,3.1-3,6.1-4.8,9-1.3,2.1-2.7,4-3.9,6.1-1.3,2.2-2.9,4.2-4.4,6.2-3.8,5-8,9.6-12.6,14-3.4,3.3-7,6.3-10.8,9.1-3.9,2.9-7.9,5.5-12.1,7.9-5.2,3-10.7,5.6-16.3,7.7-5.8,2.2-11.7,4.1-17.8,5.3-9.5,1.9-19,3-28.7,2.7-8.2-.2-16.3-1.5-24.3-3.2-7.2-1.6-14.1-4.1-20.8-7-3.3-1.4-6.5-3-9.6-4.9-2.2-1.4-4.5-2.6-6.7-3.9,0,0,0,0,0,0,0-.5-.5-.5-.8-.6-.5-.3-1-.5-1.3-1,0-.3-.2-.6-.6-.5,0,0,0,0,0,0,0-.3,0-.5-.5-.4h0c0-.3,0-.5-.4-.4,0,0,0,0,0,0,0-.1,0-.3,0-.3-2.3-2.5-4.5-5.1-6.6-7.7-2-2.4-3.8-4.9-5.5-7.4-2.7-4.2-5.2-8.4-7.4-12.9-2.1-4.3-4.1-8.6-5.7-13.1-1.8-5-3.4-10.2-4.4-15.4-.9-4.9-1.9-9.8-2.3-14.7-.5-5.5-.5-11.1-.3-16.7.4-7.4,1.6-14.6,3.2-21.7,1.5-7,4-13.7,6.8-20.2,2-4.7,4.4-9.2,7.1-13.5,2.1-3.5,4.4-6.8,6.8-10.1,2.9-3.9,6.1-7.5,9.4-11,5.1-5.3,10.6-10.1,16.7-14.3,3.2-2.3,6.5-4.4,9.9-6.3,4.6-2.7,9.3-5,14.2-7,3.8-1.6,7.6-2.8,11.5-4.1,5.3-1.7,10.8-2.7,16.3-3.5,4.9-.7,9.9-1.4,14.9-1.2,0,.3,0,.5,0,.8,0,16.4,0,32.8,0,49.2,0,.4,0,.8-.3,1.2-1.9-.6-3.9-1.1-6-1.4-7.7-1.5-15.3-1.2-22.8.4-5.9,1.3-11.4,3.8-16.6,6.9-3.6,2.2-6.8,4.9-9.7,7.9-3.3,3.4-6.3,7.2-8.6,11.4-2.8,5.1-4.9,10.3-6,16.1-1.3,7.2-1.4,14.3,0,21.5,1,5.8,3.1,11.2,6,16.3,1.2,2.2,2.6,4.2,4.1,6.2,1.5,2.1,3.3,3.9,5,5.7,1.6,1.7,3.5,3.2,5.3,4.7,2.2,1.7,4.5,3.1,6.9,4.5.2.1.5.2.7,0h0c-.2.5.1.4.4.4,0,0,0,0,0,0-.1.4.1.3.4.3Z"/>
        <path class="cls-2" d="M59.7,358.6c2.3,1.3,4.5,2.5,6.7,3.9,3.1,1.9,6.3,3.4,9.6,4.9,6.7,2.9,13.6,5.4,20.8,7,8,1.7,16.1,3,24.3,3.2,9.7.2,19.2-.8,28.7-2.7,6.1-1.3,12-3.1,17.8-5.3,5.6-2.1,11-4.7,16.3-7.7,4.2-2.4,8.3-5.1,12.1-7.9,3.8-2.8,7.4-5.9,10.8-9.1,4.6-4.3,8.8-9,12.6-14,1.5-2,3.1-4,4.4-6.2,1.2-2.1,2.6-4.1,3.9-6.1,1.8-2.9,3.3-6,4.8-9,1.9-3.9,3.7-7.9,5-12.2.7-2.5,1.7-4.9,2.4-7.5,1.5-5.8,2.7-11.6,3.5-17.5.8-5.7.8-11.5.8-17.3,0-42,0-84,0-126v-2.2c.7-.3,1,.1,1.4.4,4.3,3.3,9,5.9,13.6,8.6,3,1.7,6.2,3.1,9.3,4.7,3.9,2,7.9,3.5,11.9,5,6.8,2.5,13.8,4.5,20.9,6.1,10,2.2,20,3.2,30.2,3.5.3,0,.7,0,1,0,1.9,0,1.9,0,1.9-1.9,0-15.5,0-30.9,0-46.4,0-.8,0-1.6,0-2.4,2.3.4,4.5.7,6.8,1.1,3.4.5,6.9.5,10.4.7,1.6,0,1.6,0,1.6,1.6,0,20.5,0,41,0,61.4,0,1.6,0,1.6-1.6,1.6-10.3.2-20.5-1.2-30.6-3.3-4.5-.9-8.9-2.2-13.3-3.5-6-1.8-11.8-4-17.4-6.5-4.6-2-9-4.3-13.3-6.7-4.4-2.4-8.6-5.2-12.8-8-.2-.1-.4-.2-.8-.4-.3.8-.2,1.6-.2,2.3,0,43,0,86,0,129,0,6.9-.7,13.7-1.7,20.5-.7,4.6-1.9,9-3.1,13.4-1.7,6.1-4,12-6.8,17.7-2.1,4.3-4.4,8.5-6.9,12.5-3,4.8-6.4,9.2-10,13.6-2.5,3-5.1,5.8-7.9,8.4-3.1,3.1-6.5,5.9-9.9,8.6-4.4,3.4-9,6.5-13.8,9.3-4.5,2.6-9.3,4.9-14.1,6.9-3,1.2-6,2.4-9,3.3-4.9,1.4-9.8,2.9-14.8,3.7-9.6,1.5-19.3,2.2-29,1.6-3.3-.2-6.6-.7-10-1.1-6.7-.7-13.1-2.6-19.5-4.5-4.4-1.3-8.6-3-12.8-5-3.5-1.6-7-3.4-10.3-5.3-4.4-2.6-8.7-5.5-12.8-8.7-3.6-2.8-7.1-5.8-10.4-9-.3-.3-.7-.5-.6-.9Z"/>
        <path class="cls-1" d="M245.1,15.8c-5.9,0-11.8,0-17.7,0-9.1,0-18.1,0-27.2,0-.4,0-.8,0-1.2,0-.8,0-1,.4-1,1.1,0,.6,0,1.2,0,1.8,0,84.8,0,169.5,0,254.3,0,7.6-1.2,15-4.3,22-2.2,5.1-5.1,9.7-8.6,14-3.6,4.4-7.9,8-12.6,11.1-4.5,2.9-9.4,5.1-14.7,6.5-8.3,2.1-16.8,2.5-25.3.9-4.4-.8-8.6-2.4-12.6-4.2-3-1.3-5.9-3.1-8.6-5.1-3.1-2.3-5.8-4.9-8.5-7.5-1.1-1.1-1.9-2.3-2.8-3.6,1.4.3,2.5,1.1,3.7,1.7,4.1,1.7,8.3,2.7,12.7,3.4,7.1,1.1,14.1.7,21.1-1.1,5.8-1.5,11.1-3.8,16.1-7,6.1-3.9,11.2-8.8,15.4-14.6,3-4.1,5.4-8.7,7-13.6,2.1-6.4,3-12.9,3-19.7,0-84.5,0-168.9,0-253.4,0-3-.4-2.6,2.6-2.6,20,0,39.9,0,59.9,0,3,0,2.6-.4,2.5,2.6,0,3.9,0,7.9.8,11.7,0,.4,0,.8.4,1.1,0,.1-.1.2-.2.3Z"/>
        <path class="cls-1" d="M140.9,154.5c-5-.2-9.9.5-14.9,1.2-5.5.8-11,1.8-16.3,3.5-3.9,1.3-7.7,2.5-11.5,4.1-4.9,2-9.6,4.3-14.2,7-3.4,2-6.7,4.1-9.9,6.3-6,4.2-11.5,9-16.7,14.3-3.4,3.5-6.6,7.1-9.4,11-2.4,3.2-4.7,6.6-6.8,10.1-2.7,4.3-5.1,8.9-7.1,13.5-2.8,6.5-5.3,13.3-6.8,20.2-1.6,7.1-2.8,14.3-3.2,21.7-.3,5.6-.2,11.1.3,16.7.4,4.9,1.3,9.8,2.3,14.7,1,5.3,2.6,10.4,4.4,15.4,1.6,4.5,3.5,8.8,5.7,13.1,2.2,4.5,4.8,8.7,7.4,12.9,1.6,2.6,3.5,5,5.5,7.4,2.2,2.6,4.3,5.3,6.6,7.7,0,0,0,.2,0,.3-2-.6-3.4-2.1-5-3.3-2.2-1.7-4.3-3.4-6.3-5.2-1.4-1.2-2.7-2.5-4-3.8-2.1-2.2-4.3-4.3-6.2-6.6-1.6-1.9-3.2-3.8-4.7-5.8-1.7-2.2-3.3-4.4-4.8-6.7-1.6-2.4-3.2-4.8-4.6-7.3-2.4-4.1-4.5-8.4-6.3-12.9-3.4-8.3-6.1-16.8-7.5-25.6-.7-4.5-1.3-9.1-1.5-13.7-.2-3.3-.2-6.6-.2-9.8,0-4.8.7-9.5,1.2-14.3.7-6.3,2.5-12.3,4.1-18.4.6-2.3,1.5-4.4,2.3-6.7,1.6-4.4,3.5-8.6,5.7-12.7,2.4-4.6,5.1-9.1,8.1-13.4,2.9-4,5.8-7.9,9.1-11.6,5.1-5.7,10.7-10.8,16.7-15.4,4.3-3.3,8.8-6.3,13.6-9,5.5-3.1,11.3-5.8,17.2-8,7.3-2.7,14.7-4.7,22.4-5.9,8.2-1.3,16.4-1.7,24.7-1.3,3.1.1,6.1.5,9.2.8,1.5.2,1.6.2,1.6,1.8,0,3.5,0,7.1,0,10.6,0,.7-.1,1.4.1,2.2,0,.1-.2.2-.2.3Z"/>
        <path class="cls-2" d="M140.9,154.5c0-.1.2-.2.2-.3,2.9.1,5.8.2,8.6.3,3,0,6,.5,9,.8.8,0,1.2.5,1.1,1.3,0,.3,0,.5,0,.8,0,20.9,0,41.7,0,62.6,0,.5,0,.9,0,1.5-1,.2-1.7-.3-2.5-.5-9.8-2.7-19.5-2.5-29.3.3-5,1.4-9.5,3.6-13.9,6.2-6.2,3.8-11.3,8.7-15.5,14.6-3.2,4.5-5.7,9.5-7.4,14.9-1.6,5.2-2.6,10.4-2.7,15.8-.1,4.1.3,8.1,1.2,12.1,1.3,5.6,3.2,11,6.1,16.1.8,1.4,2,2.6,2.6,4.1.1.2.2.5.2.7-.2.3-.4.2-.7,0-2.3-1.5-4.7-2.8-6.9-4.5-1.8-1.5-3.7-3-5.3-4.7-1.8-1.8-3.5-3.6-5-5.7-1.5-2-2.9-4-4.1-6.2-2.8-5.1-4.9-10.5-6-16.3-1.3-7.2-1.3-14.3,0-21.5,1.1-5.7,3.3-11,6-16.1,2.3-4.2,5.3-8,8.6-11.4,2.9-3,6.2-5.7,9.7-7.9,5.1-3.2,10.6-5.7,16.6-6.9,7.6-1.6,15.2-1.9,22.8-.4,2,.4,4.1.8,6,1.4.4-.4.3-.8.3-1.2,0-16.4,0-32.8,0-49.2,0-.3,0-.5,0-.8Z"/>
        <path class="cls-4" d="M245.1,15.8c0,0,.1-.2.2-.3,5.1,0,10.2,0,15.4,0,.5,0,.9,0,1.4,0,.8,0,1.1.3,1.1,1,0,.7,0,1.3,0,2-.2,4.6.5,9.1,1.2,13.7.7,4.3,2,8.4,3.3,12.5,1.2,4,2.9,7.7,4.7,11.4,2.3,4.6,4.9,9,8,13,1.3,1.7,2.6,3.3,3.9,4.9.3.3.7.6.6,1.2-.8,0-1.4-.4-1.9-.9-7.3-5.3-14-11.4-19.6-18.5-3.1-4-5.9-8.2-8.3-12.5-2.9-5.3-5.3-10.8-7.1-16.5-1.1-3.6-2-7.3-2.7-11Z"/>
        <path class="cls-1" d="M334.2,104.1c-4.7-1-9.3-2.3-13.8-4.1-6.1-2.4-11.9-5.4-17.3-9-5.1-3.3-9.7-7.2-14-11.5-.4-.4-1-.7-.8-1.4,2.2.4,3.8,1.9,5.8,2.8,5.3,2.6,10.8,4.7,16.5,6.2,7.3,2,14.7,2.9,22.3,3.2,1.8,0,1.7.2,1.7,1.8,0,4,.2,8-.1,12Z"/>
        <path class="cls-4" d="M285.8,76.1c-.6,0-.9-.4-1.1-.9.6,0,.9.4,1.1.9Z"/>
        <path class="cls-1" d="M288.2,78.1c-.8.1-1-.5-1.2-1,.5.2,1.1.3,1.2,1Z"/>
        <path class="cls-1" d="M57,356.5c.4,0,.5.2.6.5-.3,0-.6-.2-.6-.5Z"/>
        <path class="cls-2" d="M58.9,358c.3.1.7.1.8.6-.5,0-.7-.2-.8-.6Z"/>
        <path class="cls-2" d="M99.1,306.2c-.3,0-.6,0-.4-.4.3,0,.4.1.4.4Z"/>
        <path class="cls-2" d="M99.5,306.5c-.2,0-.5,0-.4-.3.2,0,.3.1.4.3Z"/>
        <path class="cls-1" d="M56.2,355.7c.4-.1.5,0,.4.4-.3,0-.5,0-.4-.4Z"/>
        <path class="cls-1" d="M56.6,356.1c.4-.1.5,0,.5.4-.3,0-.5,0-.5-.4Z"/>
      </g>
    </g>
  </g>
</svg>