<?xml version="1.0" encoding="UTF-8"?>
<svg id="Layer_2" xmlns="http://www.w3.org/2000/svg" viewBox="0 0 358.18 393.32">
  <defs>
    <style>
      .cls-1 {
        fill: #232916;
      }
    </style>
  </defs>
  <g id="Layer_1-2" data-name="Layer_1">
    <path class="cls-1" d="M355.56,104.69c-11.67-35.38-76.22-4.81-93.94-56.42-10.05-23.79-.92-49.85-36.97-47.77-20.98-.79-47.56-3.46-52.38,20.29-4.42,77.36-.84,155.42,1.63,232.94,1.49,23.07-8.09,50.52-31.27,58.44-51.16,16.45-84.78-51.04-43.96-84.42,11.12-10.58,29.43-8.71,40.76-18.11,6.78-6.95,5.31-17.69,5.93-26.68.46-12.47,2.39-26.59-2.03-36.23-15.34-24.63-64.87-4.76-83.46,8.54-195.55,160.59,147.12,375.3,187.08,120.05,1.48-15.02,2.05-29.9,2.03-44.08.9-26.5-5.68-54.44.21-79.65,2.94-4.79,9.52-1.55,13.65.39,22.91,10.65,67.52,33.74,89.22,13.68,10.11-16.38,4.96-43.13,3.52-60.8l-.04-.16Z"/>
  </g>
</svg>